<svg width="1441" height="577" viewBox="0 0 1441 577" fill="none" xmlns="http://www.w3.org/2000/svg">
<rect y="490" width="1441" height="87" fill="#20222A"/>
<path fill-rule="evenodd" clip-rule="evenodd" d="M209 392.654V393.456C209 400.152 214.205 405.576 220.621 405.576H311.648C325.688 405.576 336.494 392.131 334.556 377.066L324.279 293.126C323.389 286.173 317.905 281 311.425 281H284.447C277.971 281 272.487 286.173 271.592 293.126L261.315 377.066C261.237 377.666 261.181 378.265 261.148 378.86L261.093 378.85C261.093 378.85 259.192 392.654 241.522 392.654H209Z" fill="#282A35"/>
<path fill-rule="evenodd" clip-rule="evenodd" d="M305.904 500.131C305.904 504.412 309.382 507.883 313.672 507.883C317.962 507.883 321.439 504.412 321.439 500.131C321.439 495.85 317.962 492.378 313.672 492.378C309.382 492.378 305.904 495.85 305.904 500.131Z" fill="#282A35"/>
<path fill-rule="evenodd" clip-rule="evenodd" d="M235.027 501.685H311.791C314.731 501.685 317.137 499.284 317.137 496.35C317.137 493.416 314.731 491.015 311.791 491.015H235.027C232.087 491.015 229.681 493.416 229.681 496.35C229.681 499.284 232.087 501.685 235.027 501.685Z" fill="#3E3F49"/>
<path fill-rule="evenodd" clip-rule="evenodd" d="M277.346 499.148H269.468V405.253H277.346V499.148Z" fill="#3E3F49"/>
<path fill-rule="evenodd" clip-rule="evenodd" d="M246.413 405.253L273.406 417.522L300.398 405.253H246.413Z" fill="#3E3F49"/>
<path fill-rule="evenodd" clip-rule="evenodd" d="M293.344 500.131C293.344 504.412 296.821 507.883 301.111 507.883C305.402 507.883 308.879 504.412 308.879 500.131C308.879 495.85 305.402 492.378 301.111 492.378C296.821 492.378 293.344 495.85 293.344 500.131Z" fill="#20222A"/>
<path fill-rule="evenodd" clip-rule="evenodd" d="M238.859 500.131C238.859 504.412 242.337 507.883 246.627 507.883C250.917 507.883 254.395 504.412 254.395 500.131C254.395 495.85 250.917 492.378 246.627 492.378C242.337 492.378 238.859 495.85 238.859 500.131Z" fill="#20222A"/>
<path d="M1046.2 507.967H1099.74L1115.29 438.009H1027.19L1046.2 507.967Z" fill="#3E3F49"/>
<path d="M1119.06 297.721C1157.86 314.306 1118.51 379.231 1093.98 409.62C1088.56 420.493 1077.08 441.01 1074.56 436.092C1072.03 431.175 1071.59 398.784 1071.68 383.203C1071.31 347.799 1080.26 281.136 1119.06 297.721Z" fill="#282A35"/>
<path d="M1010.89 356.264C989.358 376.884 1031.53 410.03 1055.31 424.025C1061.6 429.867 1074.3 440.581 1074.74 436.701C1075.19 432.821 1067.43 411.29 1063.49 401.009C1054.93 377.502 1032.43 335.644 1010.89 356.264Z" fill="#282A35"/>
<rect width="200" height="420" transform="matrix(-1 0 0 1 821 70)" fill="#282A35"/>
<rect width="197" height="41" transform="matrix(-1 0 0 1 821 448)" fill="#3E3F49"/>
<rect width="64.0102" height="13.4298" transform="matrix(-1 0 0 1 689.01 433.57)" fill="#242630"/>
<rect width="64.0102" height="13.4298" transform="matrix(-1 0 0 1 754.005 433.57)" fill="#242630"/>
<rect width="64.0102" height="13.4298" transform="matrix(-1 0 0 1 819 433.57)" fill="#242630"/>
<rect width="64.0102" height="13.4298" transform="matrix(-1 0 0 1 689.01 404.645)" fill="#242630"/>
<rect width="64.0102" height="13.4298" transform="matrix(-1 0 0 1 754.005 404.645)" fill="#242630"/>
<rect width="64.0102" height="13.4298" transform="matrix(-1 0 0 1 819 404.645)" fill="#242630"/>
<rect width="94.5381" height="13.4298" transform="matrix(-1 0 0 1 719.538 419.108)" fill="#242630"/>
<rect width="64.0102" height="13.4298" transform="matrix(-1 0 0 1 784.533 419.108)" fill="#242630"/>
<rect width="33.4822" height="13.4298" transform="matrix(-1 0 0 1 819 419.108)" fill="#242630"/>
<rect width="94.5381" height="13.4298" transform="matrix(-1 0 0 1 719.538 390.182)" fill="#242630"/>
<rect width="64.0102" height="13.4298" transform="matrix(-1 0 0 1 784.533 390.182)" fill="#242630"/>
<rect width="33.4822" height="13.4298" transform="matrix(-1 0 0 1 819 390.182)" fill="#242630"/>
<rect width="64.0102" height="13.4298" transform="matrix(-1 0 0 1 689.01 317.868)" fill="#242630"/>
<rect width="64.0102" height="13.4298" transform="matrix(-1 0 0 1 754.005 317.868)" fill="#242630"/>
<rect width="64.0102" height="13.4298" transform="matrix(-1 0 0 1 819 317.868)" fill="#242630"/>
<rect width="64.0102" height="13.4298" transform="matrix(-1 0 0 1 689.01 288.942)" fill="#242630"/>
<rect width="64.0102" height="13.4298" transform="matrix(-1 0 0 1 754.005 288.942)" fill="#242630"/>
<rect width="64.0102" height="13.4298" transform="matrix(-1 0 0 1 819 288.942)" fill="#242630"/>
<rect width="94.5381" height="13.4298" transform="matrix(-1 0 0 1 719.538 303.405)" fill="#242630"/>
<rect width="64.0102" height="13.4298" transform="matrix(-1 0 0 1 784.533 303.405)" fill="#242630"/>
<rect width="33.4822" height="13.4298" transform="matrix(-1 0 0 1 819 303.405)" fill="#242630"/>
<rect width="94.5381" height="13.4298" transform="matrix(-1 0 0 1 719.538 274.479)" fill="#242630"/>
<rect width="64.0102" height="13.4298" transform="matrix(-1 0 0 1 784.533 274.479)" fill="#242630"/>
<rect width="33.4822" height="13.4298" transform="matrix(-1 0 0 1 819 274.479)" fill="#242630"/>
<rect width="64.0102" height="13.4298" transform="matrix(-1 0 0 1 689.01 202.165)" fill="#242630"/>
<rect width="64.0102" height="13.4298" transform="matrix(-1 0 0 1 754.005 202.165)" fill="#242630"/>
<rect width="64.0102" height="13.4298" transform="matrix(-1 0 0 1 819 202.165)" fill="#242630"/>
<rect width="64.0102" height="13.4298" transform="matrix(-1 0 0 1 689.01 173.24)" fill="#242630"/>
<rect width="64.0102" height="13.4298" transform="matrix(-1 0 0 1 754.005 173.24)" fill="#242630"/>
<rect width="64.0102" height="13.4298" transform="matrix(-1 0 0 1 819 173.24)" fill="#242630"/>
<rect width="94.5381" height="13.4298" transform="matrix(-1 0 0 1 719.538 187.702)" fill="#242630"/>
<rect width="64.0102" height="13.4298" transform="matrix(-1 0 0 1 784.533 187.702)" fill="#242630"/>
<rect width="33.4822" height="13.4298" transform="matrix(-1 0 0 1 819 187.702)" fill="#242630"/>
<rect width="94.5381" height="13.4298" transform="matrix(-1 0 0 1 719.538 158.777)" fill="#242630"/>
<rect width="64.0102" height="13.4298" transform="matrix(-1 0 0 1 784.533 158.777)" fill="#242630"/>
<rect width="33.4822" height="13.4298" transform="matrix(-1 0 0 1 819 158.777)" fill="#242630"/>
<rect width="64.0102" height="13.4298" transform="matrix(-1 0 0 1 689.01 375.719)" fill="#242630"/>
<rect width="64.0102" height="13.4298" transform="matrix(-1 0 0 1 754.005 375.719)" fill="#242630"/>
<rect width="64.0102" height="13.4298" transform="matrix(-1 0 0 1 819 375.719)" fill="#242630"/>
<rect width="64.0102" height="13.4298" transform="matrix(-1 0 0 1 689.01 346.793)" fill="#242630"/>
<rect width="64.0102" height="13.4298" transform="matrix(-1 0 0 1 754.005 346.793)" fill="#242630"/>
<rect width="64.0102" height="13.4298" transform="matrix(-1 0 0 1 819 346.793)" fill="#242630"/>
<rect width="94.5381" height="13.4298" transform="matrix(-1 0 0 1 719.538 361.256)" fill="#242630"/>
<rect width="64.0102" height="13.4298" transform="matrix(-1 0 0 1 784.533 361.256)" fill="#242630"/>
<rect width="33.4822" height="13.4298" transform="matrix(-1 0 0 1 819 361.256)" fill="#242630"/>
<rect width="94.5381" height="13.4298" transform="matrix(-1 0 0 1 719.538 332.331)" fill="#242630"/>
<rect width="64.0102" height="13.4298" transform="matrix(-1 0 0 1 784.533 332.331)" fill="#242630"/>
<rect width="33.4822" height="13.4298" transform="matrix(-1 0 0 1 819 332.331)" fill="#242630"/>
<rect width="64.0102" height="13.4298" transform="matrix(-1 0 0 1 689.01 260.017)" fill="#242630"/>
<rect width="64.0102" height="13.4298" transform="matrix(-1 0 0 1 754.005 260.017)" fill="#242630"/>
<rect width="64.0102" height="13.4298" transform="matrix(-1 0 0 1 819 260.017)" fill="#242630"/>
<rect width="64.0102" height="13.4298" transform="matrix(-1 0 0 1 689.01 231.091)" fill="#242630"/>
<rect width="64.0102" height="13.4298" transform="matrix(-1 0 0 1 754.005 231.091)" fill="#242630"/>
<rect width="64.0102" height="13.4298" transform="matrix(-1 0 0 1 819 231.091)" fill="#242630"/>
<rect width="94.5381" height="13.4298" transform="matrix(-1 0 0 1 719.538 245.554)" fill="#242630"/>
<rect width="64.0102" height="13.4298" transform="matrix(-1 0 0 1 784.533 245.554)" fill="#242630"/>
<rect width="33.4822" height="13.4298" transform="matrix(-1 0 0 1 819 245.554)" fill="#242630"/>
<rect width="94.5381" height="13.4298" transform="matrix(-1 0 0 1 719.538 216.628)" fill="#242630"/>
<rect width="64.0102" height="13.4298" transform="matrix(-1 0 0 1 784.533 216.628)" fill="#242630"/>
<rect width="33.4822" height="13.4298" transform="matrix(-1 0 0 1 819 216.628)" fill="#242630"/>
<rect width="64.0102" height="13.4298" transform="matrix(-1 0 0 1 689.01 144.314)" fill="#242630"/>
<rect width="64.0102" height="13.4298" transform="matrix(-1 0 0 1 754.005 144.314)" fill="#242630"/>
<rect width="64.0102" height="13.4298" transform="matrix(-1 0 0 1 819 144.314)" fill="#242630"/>
<rect width="64.0102" height="13.4298" transform="matrix(-1 0 0 1 689.01 115.388)" fill="#242630"/>
<rect width="64.0102" height="13.4298" transform="matrix(-1 0 0 1 754.005 115.388)" fill="#242630"/>
<rect width="64.0102" height="13.4298" transform="matrix(-1 0 0 1 819 115.388)" fill="#242630"/>
<rect width="94.5381" height="13.4298" transform="matrix(-1 0 0 1 719.538 129.851)" fill="#242630"/>
<rect width="64.0102" height="13.4298" transform="matrix(-1 0 0 1 784.533 129.851)" fill="#242630"/>
<rect width="33.4822" height="13.4298" transform="matrix(-1 0 0 1 819 129.851)" fill="#242630"/>
<rect width="94.5381" height="13.4298" transform="matrix(-1 0 0 1 719.538 100.926)" fill="#242630"/>
<rect width="64.0102" height="13.4298" transform="matrix(-1 0 0 1 784.533 100.926)" fill="#242630"/>
<rect width="33.4822" height="13.4298" transform="matrix(-1 0 0 1 819 100.926)" fill="#242630"/>
<rect width="64.0102" height="13.4298" transform="matrix(-1 0 0 1 689.01 86.4629)" fill="#242630"/>
<rect width="64.0102" height="13.4298" transform="matrix(-1 0 0 1 754.005 86.4629)" fill="#242630"/>
<rect width="64.0102" height="13.4298" transform="matrix(-1 0 0 1 819 86.4629)" fill="#242630"/>
<rect width="94.5381" height="13.4298" transform="matrix(-1 0 0 1 719.538 72)" fill="#242630"/>
<rect width="64.0102" height="13.4298" transform="matrix(-1 0 0 1 784.533 72)" fill="#242630"/>
<rect width="33.4822" height="13.4298" transform="matrix(-1 0 0 1 819 72)" fill="#242630"/>
<path d="M704.18 125.614L629.18 72V489L704.18 448.293V125.614Z" fill="#53555D"/>
<ellipse rx="2.5" ry="6.45357" transform="matrix(-1 0 0 1 693.68 285.739)" fill="#3E3F49"/>
<ellipse rx="2.5" ry="6.45357" transform="matrix(-1 0 0 1 696.68 285.739)" fill="#242630"/>
<rect width="5" height="417" transform="matrix(-1 0 0 1 629 70)" fill="#696A72"/>
<rect width="1" height="26" transform="matrix(-1 0 0 1 623 119)" fill="#696A72"/>
<rect width="1" height="26" transform="matrix(-1 0 0 1 623 272)" fill="#696A72"/>
<rect width="1" height="26" transform="matrix(-1 0 0 1 623 414)" fill="#696A72"/>
<ellipse cx="537.961" cy="526.855" rx="65.9153" ry="6.3789" fill="#282A35"/>
<path d="M552.868 435.762L520.689 355.743L563.189 349.682L574.118 431.359L569.608 531.526L552.868 435.762Z" fill="#53555D"/>
<path d="M565.68 349.682H516.323L527.252 425.927L492.567 527.777L552.863 425.927L565.68 349.682Z" fill="#3E3F49"/>
<path d="M549.513 224.885L546.445 228.965L546.445 235.081L555.005 244.487L569.533 242.682L549.513 224.885Z" fill="#BFBFC2"/>
<path d="M536.264 264.619L520.299 266.988L517.091 242.855L506.102 236.121L508.487 230.229L537.281 218.769L549.825 224.105L545.476 229.202L545.571 234.932L538.354 237.397L535.454 240.803L545.667 240.662L545.605 245.224L537.9 249.695L534.567 254.225L536.264 264.619Z" fill="#BFBFC2"/>
<path d="M519.855 241.687L519.434 248.373L491.144 239.207L501.901 206.988L526.767 199.69L555.865 192.262L529.349 229.529L513.216 229.855L508.867 234.952L519.855 241.687Z" fill="#3E3F49"/>
<path d="M535.519 265.201L545.037 259.678L554.5 245.274L569.029 243.469L555.322 277.403L572.859 356.041L513.486 378.014L501.812 287.167L474.475 254.684L492.443 253.878L508.154 268.468L520.47 267.282L535.519 265.201Z" fill="#696A72"/>
<path d="M429.345 249.313L453.62 239.266L463.366 249.472L459.666 235.726L463.984 233.197L462.167 230.093L468.076 228.3L464.941 220.965L470.577 222.667L478.67 208.757L468.396 218.942L466.851 212.343L460.532 219.378L439.627 191.603L459.986 226.368L454.213 226.414L457.848 232.622L431.439 233.081L450.075 237.174L429.345 249.313Z" fill="#94959A"/>
<path d="M562.594 192.391L564.81 210.101L556.371 214.649L566.042 214.698L566.922 217.982L569.282 217.35L569.394 221.544L574.763 220.809L572.634 224.195L580.291 231.999L575.467 223.436L580.067 223.611L576.595 218.206L598.551 209.507L572.115 216.591L573.123 212.801L568.402 214.066L572.852 196.682L566.818 208.154L562.594 192.391Z" fill="#94959A"/>
<path d="M476.696 252.863L491.693 234.669L519.404 205.094L503.663 235.296L494.499 252.949L476.696 252.863Z" fill="#BFBFC2"/>
</svg>