<svg width="1441" height="577" viewBox="0 0 1441 577" fill="none" xmlns="http://www.w3.org/2000/svg">
<g filter="url(#filter0_i)">
<rect y="490" width="1441" height="87" fill="#20222A"/>
</g>
<path fill-rule="evenodd" clip-rule="evenodd" d="M209 392.654V393.456C209 400.152 214.205 405.576 220.621 405.576H311.648C325.688 405.576 336.494 392.131 334.556 377.066L324.279 293.126C323.389 286.173 317.905 281 311.425 281H284.447C277.971 281 272.487 286.173 271.592 293.126L261.315 377.066C261.237 377.666 261.181 378.265 261.148 378.86L261.093 378.85C261.093 378.85 259.192 392.654 241.522 392.654H209Z" fill="#282A35"/>
<path fill-rule="evenodd" clip-rule="evenodd" d="M305.904 500.131C305.904 504.412 309.382 507.883 313.672 507.883C317.962 507.883 321.439 504.412 321.439 500.131C321.439 495.85 317.962 492.378 313.672 492.378C309.382 492.378 305.904 495.85 305.904 500.131" fill="#282A35"/>
<path fill-rule="evenodd" clip-rule="evenodd" d="M235.027 501.685H311.791C314.731 501.685 317.137 499.284 317.137 496.35C317.137 493.416 314.731 491.014 311.791 491.014H235.027C232.087 491.014 229.681 493.416 229.681 496.35C229.681 499.284 232.087 501.685 235.027 501.685" fill="#3E3F49"/>
<path fill-rule="evenodd" clip-rule="evenodd" d="M277.346 499.148H269.468V405.253H277.346V499.148Z" fill="#3E3F49"/>
<path fill-rule="evenodd" clip-rule="evenodd" d="M246.413 405.253L273.406 417.522L300.399 405.253H246.413Z" fill="#3E3F49"/>
<path fill-rule="evenodd" clip-rule="evenodd" d="M293.344 500.131C293.344 504.412 296.821 507.883 301.111 507.883C305.402 507.883 308.879 504.412 308.879 500.131C308.879 495.85 305.402 492.378 301.111 492.378C296.821 492.378 293.344 495.85 293.344 500.131" fill="#20222A"/>
<path fill-rule="evenodd" clip-rule="evenodd" d="M238.859 500.131C238.859 504.412 242.337 507.883 246.627 507.883C250.917 507.883 254.395 504.412 254.395 500.131C254.395 495.85 250.917 492.378 246.627 492.378C242.337 492.378 238.859 495.85 238.859 500.131" fill="#20222A"/>
<path fill-rule="evenodd" clip-rule="evenodd" d="M1147 392.654V393.456C1147 400.152 1152.21 405.576 1158.62 405.576H1249.65C1263.69 405.576 1274.49 392.131 1272.56 377.066L1262.28 293.126C1261.39 286.173 1255.91 281 1249.43 281H1222.45C1215.97 281 1210.49 286.173 1209.59 293.126L1199.32 377.066C1199.24 377.666 1199.18 378.265 1199.15 378.86L1199.09 378.85C1199.09 378.85 1197.19 392.654 1179.52 392.654H1147Z" fill="#282A35"/>
<path fill-rule="evenodd" clip-rule="evenodd" d="M1243.9 500.131C1243.9 504.412 1247.38 507.883 1251.67 507.883C1255.96 507.883 1259.44 504.412 1259.44 500.131C1259.44 495.85 1255.96 492.378 1251.67 492.378C1247.38 492.378 1243.9 495.85 1243.9 500.131" fill="#282A35"/>
<path fill-rule="evenodd" clip-rule="evenodd" d="M1173.03 501.685H1249.79C1252.73 501.685 1255.14 499.284 1255.14 496.35C1255.14 493.416 1252.73 491.014 1249.79 491.014H1173.03C1170.09 491.014 1167.68 493.416 1167.68 496.35C1167.68 499.284 1170.09 501.685 1173.03 501.685" fill="#3E3F49"/>
<path fill-rule="evenodd" clip-rule="evenodd" d="M1215.35 499.148H1207.47V405.253H1215.35V499.148Z" fill="#3E3F49"/>
<path fill-rule="evenodd" clip-rule="evenodd" d="M1184.41 405.253L1211.41 417.522L1238.4 405.253H1184.41Z" fill="#3E3F49"/>
<path fill-rule="evenodd" clip-rule="evenodd" d="M1231.34 500.131C1231.34 504.412 1234.82 507.883 1239.11 507.883C1243.4 507.883 1246.88 504.412 1246.88 500.131C1246.88 495.85 1243.4 492.378 1239.11 492.378C1234.82 492.378 1231.34 495.85 1231.34 500.131" fill="#20222A"/>
<path fill-rule="evenodd" clip-rule="evenodd" d="M1176.86 500.131C1176.86 504.412 1180.34 507.883 1184.63 507.883C1188.92 507.883 1192.39 504.412 1192.39 500.131C1192.39 495.85 1188.92 492.378 1184.63 492.378C1180.34 492.378 1176.86 495.85 1176.86 500.131" fill="#20222A"/>
<path d="M335.315 468.304L343.442 502.319L390.241 501.576L376.87 445.616L335.315 468.304Z" fill="#3E3F49"/>
<path d="M479.927 482.679C475.282 509.845 428.067 494.699 405.04 483.731C397.31 481.937 382.536 477.763 385.277 475.413C388.017 473.063 408.525 467.863 418.436 465.557C440.869 459.946 484.573 455.513 479.927 482.679Z" fill="#282A35"/>
<path d="M426.322 422.854C409.956 412.304 395.302 444.126 390.021 461.356C387.265 466.238 382.385 475.926 384.918 475.62C387.45 475.315 399.949 467.116 405.882 463.055C419.515 454.051 442.689 433.404 426.322 422.854Z" fill="#282A35"/>
<path opacity="0.5" fill-rule="evenodd" clip-rule="evenodd" d="M766.398 65.3415C920.369 127.576 1011.7 243.516 979.464 389.245C940.828 563.918 842.431 351.785 724.376 432.494C606.322 513.204 402.156 471.073 436.603 269.171C468.849 80.1644 612.427 3.10716 766.398 65.3415Z" fill="#282A35"/>
<ellipse opacity="0.5" cx="721" cy="529.824" rx="304" ry="20.2641" fill="#282A35"/>
<path d="M751.117 456.379C762.177 454.536 772.646 462.062 774.501 473.19C776.355 484.317 768.893 494.831 757.833 496.675C746.773 498.518 736.304 490.992 734.45 479.865C732.595 468.737 740.057 458.223 751.117 456.379Z" fill="#696A72"/>
<path d="M857.051 460.119L857.285 461.601L857.297 461.599L857.051 460.119ZM959.048 444.296C959.864 444.154 960.411 443.378 960.269 442.562C960.127 441.745 959.351 441.199 958.535 441.34L959.048 444.296ZM863.997 512.428C863.522 513.107 863.687 514.042 864.365 514.517C865.044 514.992 865.979 514.827 866.455 514.149L863.997 512.428ZM854.053 460.996C854.723 461.484 855.661 461.337 856.149 460.667C856.637 459.998 856.489 459.059 855.82 458.572L854.053 460.996ZM794.911 414.191C794.241 413.704 793.303 413.851 792.815 414.52C792.327 415.19 792.475 416.128 793.144 416.616L794.911 414.191ZM774.735 474.671L857.285 461.601L856.816 458.638L774.266 471.708L774.735 474.671ZM908.203 450.074L856.804 458.64L857.297 461.599L908.696 453.033L908.203 450.074ZM958.535 441.34L908.193 450.075L908.706 453.031L959.048 444.296L958.535 441.34ZM907.221 450.693L863.997 512.428L866.455 514.149L909.678 452.414L907.221 450.693ZM855.82 458.572L794.911 414.191L793.144 416.616L854.053 460.996L855.82 458.572ZM751.364 457.859C761.598 456.153 771.301 463.118 773.021 473.436L775.98 472.943C773.991 461.007 762.756 452.919 750.871 454.9L751.364 457.859ZM773.021 473.436C774.741 483.755 767.821 493.489 757.586 495.195L758.08 498.154C769.965 496.173 777.969 484.879 775.98 472.943L773.021 473.436ZM757.586 495.195C747.352 496.901 737.649 489.937 735.929 479.618L732.97 480.111C734.959 492.047 746.194 500.135 758.08 498.154L757.586 495.195ZM735.929 479.618C734.209 469.299 741.13 459.565 751.364 457.859L750.871 454.9C738.985 456.881 730.981 468.175 732.97 480.111L735.929 479.618Z" fill="#282A35"/>
<path d="M863.983 505.785C875.572 504.799 885.362 508.658 885.851 514.404C886.34 520.15 877.341 525.607 865.753 526.593C854.164 527.578 844.373 523.719 843.885 517.973C843.396 512.227 852.394 506.77 863.983 505.785Z" fill="#696A72"/>
<path d="M864.11 507.279C869.724 506.802 874.83 507.507 878.529 508.966C882.326 510.462 884.187 512.536 884.356 514.531L887.345 514.277C887.026 510.526 883.747 507.798 879.629 506.175C875.415 504.513 869.83 503.782 863.856 504.29L864.11 507.279ZM884.356 514.531C884.526 516.527 883.042 518.885 879.553 521.001C876.153 523.063 871.24 524.621 865.626 525.098L865.88 528.088C871.854 527.579 877.235 525.916 881.109 523.566C884.893 521.271 887.664 518.028 887.345 514.277L884.356 514.531ZM865.626 525.098C860.011 525.576 854.906 524.87 851.206 523.412C847.41 521.915 845.549 519.842 845.379 517.846L842.39 518.1C842.709 521.851 845.988 524.58 850.106 526.203C854.321 527.864 859.905 528.596 865.88 528.088L865.626 525.098ZM845.379 517.846C845.21 515.851 846.693 513.492 850.183 511.376C853.583 509.314 858.496 507.757 864.11 507.279L863.856 504.29C857.882 504.798 852.501 506.462 848.627 508.811C844.842 511.106 842.071 514.35 842.39 518.1L845.379 517.846Z" fill="#282A35"/>
<ellipse cx="864.886" cy="512.423" rx="5.23819" ry="11.3921" transform="rotate(-96.1231 864.886 512.423)" fill="#94959A"/>
<ellipse cx="754.475" cy="476.527" rx="10.2128" ry="10.1509" transform="rotate(-99.4621 754.475 476.527)" fill="#94959A"/>
<path d="M792.554 414.695L793.926 409.62L792.24 408.911L793.212 407.301L792.152 403.546L793.159 403" stroke="#3E3F49"/>
<path d="M792.474 415.089L791.246 411.671L790.01 411.937L789.924 410.64L787.839 408.932L788.194 408.225" stroke="#3E3F49"/>
<path d="M792.686 415.359L784.535 415.544L784.203 418.364L781.387 417.624L776.246 420.847L775 419.59" stroke="#3E3F49"/>
<ellipse cx="555.693" cy="530.073" rx="60.6521" ry="3.6983" transform="rotate(0.693482 555.693 530.073)" fill="#20222A"/>
<ellipse cx="675.65" cy="530.599" rx="40.3115" ry="2.95864" fill="#20222A"/>
<path d="M962.055 444.019C962.065 443.191 961.402 442.511 960.574 442.5C959.746 442.49 959.066 443.153 959.055 443.981L962.055 444.019ZM958.5 487.836C958.49 488.665 959.153 489.345 959.981 489.355C960.809 489.366 961.489 488.703 961.5 487.874L958.5 487.836ZM959.055 443.981L958.5 487.836L961.5 487.874L962.055 444.019L959.055 443.981Z" fill="#282A35"/>
<path d="M1000.3 486.636C1001.13 486.63 1001.8 487.297 1001.81 488.125C1001.82 488.954 1001.15 489.63 1000.32 489.636L1000.3 486.636ZM919.826 490.191C918.998 490.197 918.321 489.53 918.316 488.701C918.31 487.873 918.977 487.197 919.805 487.191L919.826 490.191ZM1000.32 489.636L919.826 490.191L919.805 487.191L1000.3 486.636L1000.32 489.636Z" fill="#282A35"/>
<path d="M576.33 429.835L542 344.467L587.341 338L599 425.137L594.189 532L576.33 429.835Z" fill="#53555D"/>
<path d="M590 338H537.345L549.004 419.342L512 528L576.326 419.342L590 338Z" fill="#3E3F49"/>
<path d="M635 219L634 219.5L630.5 225L632.412 237.983L646.524 244.676L635 219Z" fill="#94959A"/>
<path d="M604.924 245.959L589.196 238.953L600.123 215.39L594.086 203.037L599.606 199.099L633.761 204.5L633.761 208.051L640.325 217.251L633.492 219.35L630.298 224.563L622.39 222.65L617.829 224.055L627.104 229.776L624.436 233.847L614.94 233.461L609.347 235.631L604.924 245.959Z" fill="#94959A"/>
<path d="M603.28 215.92L599.072 221.699L578.852 197.25L606.981 174.405L633.544 182.07L663.992 192.041L618.786 210.41L604.076 201.468L597.243 203.567L603.28 215.92Z" fill="#282A35"/>
<path d="M603.919 246.056L615.65 246.533L632.415 238.983L646.527 245.676L614.761 268.378L590.672 337.956L519.5 335L561 246.533L554.986 201.642L571.624 211.202L577.414 233.331L589.181 239.314L603.919 246.056Z" fill="#696A72"/>
<path d="M555.293 201.465L578.552 191.89L619.5 178L589.5 198.5L572 210.5L555.293 201.465Z" fill="#94959A"/>
<path d="M613.237 414.205L647.831 414.205L638.763 422.643L607.339 423.702L592.854 380.603L613.237 414.205Z" fill="#696A72"/>
<path d="M655.912 473.094L657.481 458.019L685.305 472.045L670.084 492.49L675.332 501.401L675.332 530.605L670.084 504.547L654.338 492.49L655.912 473.094Z" fill="#696A72"/>
<path d="M654.561 394.093L653.664 387.585L633.692 386.015L632.571 392.522L654.561 394.093Z" fill="#696A72"/>
<path d="M660.667 372.07L653.422 386.844L633.903 385.281L635.14 378.944L630.081 369.722L615.439 366.347L613.413 360.896L631.604 363.279L614.427 345.173L619.334 336.172L636.406 350.719L642.677 350.021L648.72 353.98L662.867 350.021L656.722 361.455L679.61 362.419L660.667 372.07Z" fill="#3E3F49"/>
<path d="M621.099 418.916L632.201 393.114L654.892 394.9L660.976 405.593L668.11 432.901L674.81 445.454L687.467 463.035L705.776 460.229L709.47 455.061L701.793 433.794L717.348 457.245L711.1 469.585L689.405 470.327L687.086 478.691L676.003 494.194L685.305 506.422L680.384 531.435L677.451 507.862L660.557 494.194L660.557 480.233L660.557 466.271L651.645 457.245L629.591 435.171L621.099 418.916Z" fill="#3E3F49"/>
<path d="M616.292 420.026L646.512 411.188L647.811 425.291L612.644 433.845L585.672 392.122L616.292 420.026Z" fill="#3E3F49"/>
<path d="M633.447 359.685C632.42 364.281 622.665 366.013 611.659 363.553C600.652 361.093 592.563 355.373 593.59 350.777C594.617 346.181 604.372 344.449 615.379 346.909C626.385 349.369 634.474 355.089 633.447 359.685Z" fill="#696A72"/>
<path d="M631.983 359.358C631.84 359.998 631.37 360.672 630.361 361.303C629.346 361.938 627.888 362.459 626.033 362.788C622.329 363.446 617.344 363.287 611.986 362.089L611.331 365.017C616.98 366.279 622.375 366.484 626.557 365.742C628.644 365.371 630.505 364.751 631.953 363.846C633.406 362.937 634.54 361.67 634.911 360.012L631.983 359.358ZM611.986 362.089C606.628 360.892 602.05 358.913 598.978 356.741C597.439 355.653 596.342 354.561 595.694 353.554C595.05 352.554 594.911 351.744 595.054 351.104L592.126 350.45C591.756 352.108 592.243 353.736 593.171 355.178C594.095 356.613 595.515 357.967 597.246 359.191C600.714 361.643 605.683 363.754 611.331 365.017L611.986 362.089ZM595.054 351.104C595.197 350.464 595.667 349.79 596.676 349.159C597.691 348.524 599.149 348.004 601.004 347.674C604.709 347.017 609.694 347.176 615.051 348.373L615.706 345.446C610.057 344.183 604.662 343.978 600.48 344.72C598.393 345.091 596.532 345.711 595.085 346.616C593.631 347.526 592.497 348.792 592.126 350.45L595.054 351.104ZM615.051 348.373C620.409 349.571 624.988 351.549 628.059 353.721C629.598 354.809 630.696 355.901 631.344 356.908C631.987 357.908 632.126 358.718 631.983 359.358L634.911 360.012C635.281 358.355 634.794 356.726 633.866 355.284C632.942 353.849 631.522 352.496 629.791 351.272C626.323 348.82 621.354 346.708 615.706 345.446L615.051 348.373Z" fill="#282A35"/>
<ellipse cx="613.758" cy="355.188" rx="9.42464" ry="3.88455" transform="rotate(12.5989 613.758 355.188)" fill="#94959A" stroke="#94959A" stroke-width="3" stroke-linecap="round"/>
<path d="M660.641 372.07L653.397 386.843L633.878 385.281L635.115 378.944L631.579 363.279L614.402 345.173L619.332 336.397L636.381 350.719L642.652 350.021L648.694 353.98L663.313 350.021L655.235 359.734L679.584 362.418L660.641 372.07Z" fill="#3E3F49"/>
<path d="M1084.71 479.516C1085.91 478.531 1086.75 477.125 1086.75 475.438C1086.75 472.695 1084.43 470.375 1081.69 470.375H1080.63C1081.62 469.602 1082.25 468.406 1082.25 467C1082.25 464.539 1080.21 462.5 1077.75 462.5H1077.33C1077.54 461.797 1077.75 461.094 1077.75 460.25C1077.75 456.523 1074.73 453.5 1071 453.5C1070.58 453.5 1070.23 453.57 1069.88 453.641C1070.58 454.555 1071 455.68 1071 456.875C1071 460.039 1068.47 462.5 1065.38 462.5H1064.25C1061.72 462.5 1059.75 464.539 1059.75 467C1059.75 468.406 1060.31 469.602 1061.3 470.375H1060.31C1057.5 470.375 1055.25 472.695 1055.25 475.438C1055.25 477.125 1056.02 478.531 1057.22 479.516C1054.83 479.867 1053 481.977 1053 484.438C1053 487.25 1055.25 489.5 1058.06 489.5H1083.94C1086.68 489.5 1089 487.25 1089 484.438C1089 481.977 1087.1 479.867 1084.71 479.516ZM1066.5 471.5C1067.7 471.5 1068.75 472.555 1068.75 473.75C1068.75 475.016 1067.7 476 1066.5 476C1065.23 476 1064.25 475.016 1064.25 473.75C1064.25 472.555 1065.23 471.5 1066.5 471.5ZM1077.68 481.273C1076.98 483.242 1073.6 485 1071 485C1068.4 485 1065.02 483.242 1064.25 481.273C1064.11 480.922 1064.39 480.5 1064.81 480.5H1077.12C1077.54 480.5 1077.82 480.922 1077.68 481.273ZM1075.5 476C1074.23 476 1073.25 475.016 1073.25 473.75C1073.25 472.555 1074.23 471.5 1075.5 471.5C1076.7 471.5 1077.75 472.555 1077.75 473.75C1077.75 475.016 1076.7 476 1075.5 476Z" fill="#3E3F49"/>
<defs>
<filter id="filter0_i" x="0" y="490" width="1441" height="87" filterUnits="userSpaceOnUse" color-interpolation-filters="sRGB">
<feFlood flood-opacity="0" result="BackgroundImageFix"/>
<feBlend mode="normal" in="SourceGraphic" in2="BackgroundImageFix" result="shape"/>
<feColorMatrix in="SourceAlpha" type="matrix" values="0 0 0 0 0 0 0 0 0 0 0 0 0 0 0 0 0 0 127 0" result="hardAlpha"/>
<feOffset dy="1"/>
<feComposite in2="hardAlpha" operator="arithmetic" k2="-1" k3="1"/>
<feColorMatrix type="matrix" values="0 0 0 0 0.12549 0 0 0 0 0.133333 0 0 0 0 0.164706 0 0 0 1 0"/>
<feBlend mode="normal" in2="shape" result="effect1_innerShadow"/>
</filter>
</defs>
</svg>