<svg width="1441" height="576" viewBox="0 0 1441 576" fill="none" xmlns="http://www.w3.org/2000/svg">
<g filter="url(#filter0_i)">
<rect y="489" width="1441" height="87" fill="#EAEAEB"/>
</g>
<path opacity="0.5" fill-rule="evenodd" clip-rule="evenodd" d="M766.398 64.3415C920.369 126.576 1011.7 242.516 979.464 388.245C940.828 562.918 842.431 350.785 724.376 431.494C606.322 512.204 402.156 470.073 436.603 268.171C468.849 79.1644 612.427 2.10717 766.398 64.3415Z" fill="#EAEAEB"/>
<line x1="-4.37114e-08" y1="489.297" x2="1441" y2="489.297" stroke="#EAEAEB"/>
<rect width="7.53037" height="7.5347" transform="matrix(0.904105 0.42731 -0.426678 0.904404 1296.36 293.911)" fill="#EAEAEB"/>
<ellipse cx="302.971" cy="65.5165" rx="3.51335" ry="3.51653" fill="#EAEAEB"/>
<path d="M1298.18 184.295L1297.34 190.509L1292.38 186.677L1298.18 184.295Z" fill="#EAEAEB"/>
<ellipse opacity="0.5" cx="721" cy="528.824" rx="304" ry="20.2641" fill="#D4D4D7"/>
<path fill-rule="evenodd" clip-rule="evenodd" d="M254.669 390.897V391.583C254.669 397.31 250.218 401.949 244.731 401.949H166.886C154.878 401.949 145.638 390.451 147.295 377.567L156.083 305.782C156.844 299.836 161.534 295.412 167.076 295.412H190.148C195.686 295.412 200.375 299.836 201.141 305.782L209.929 377.567C209.997 378.08 210.044 378.592 210.072 379.101L210.12 379.093C210.12 379.093 211.745 390.897 226.856 390.897H254.669Z" fill="#EAEAEB"/>
<path fill-rule="evenodd" clip-rule="evenodd" d="M171.797 482.811C171.797 486.472 168.823 489.44 165.154 489.44C161.485 489.44 158.512 486.472 158.512 482.811C158.512 479.15 161.485 476.181 165.154 476.181C168.823 476.181 171.797 479.15 171.797 482.811Z" fill="#EAEAEB"/>
<path fill-rule="evenodd" clip-rule="evenodd" d="M232.413 484.14H166.765C164.251 484.14 162.194 482.086 162.194 479.577C162.194 477.068 164.251 475.014 166.765 475.014H232.413C234.928 475.014 236.985 477.068 236.985 479.577C236.985 482.086 234.928 484.14 232.413 484.14Z" fill="#D4D4D7"/>
<path fill-rule="evenodd" clip-rule="evenodd" d="M196.221 481.97H202.958V401.672H196.221V481.97Z" fill="#D4D4D7"/>
<path fill-rule="evenodd" clip-rule="evenodd" d="M222.673 401.672L199.588 412.164L176.504 401.672H222.673Z" fill="#D4D4D7"/>
<path fill-rule="evenodd" clip-rule="evenodd" d="M194.512 482.811C194.512 486.472 191.538 489.44 187.869 489.44C184.2 489.44 181.226 486.472 181.226 482.811C181.226 479.15 184.2 476.181 187.869 476.181C191.538 476.181 194.512 479.15 194.512 482.811Z" fill="#EAEAEB"/>
<path fill-rule="evenodd" clip-rule="evenodd" d="M241.107 482.811C241.107 486.472 238.133 489.44 234.464 489.44C230.795 489.44 227.821 486.472 227.821 482.811C227.821 479.15 230.795 476.181 234.464 476.181C238.133 476.181 241.107 479.15 241.107 482.811Z" fill="#EAEAEB"/>
<path fill-rule="evenodd" clip-rule="evenodd" d="M1194.83 390.897V391.583C1194.83 397.31 1199.28 401.949 1204.77 401.949H1282.61C1294.62 401.949 1303.86 390.451 1302.2 377.567L1293.42 305.782C1292.65 299.836 1287.96 295.412 1282.42 295.412H1259.35C1253.81 295.412 1249.12 299.836 1248.36 305.782L1239.57 377.567C1239.5 378.08 1239.45 378.592 1239.43 379.101L1239.38 379.093C1239.38 379.093 1237.75 390.897 1222.64 390.897H1194.83Z" fill="#EAEAEB"/>
<path fill-rule="evenodd" clip-rule="evenodd" d="M1277.7 482.811C1277.7 486.472 1280.68 489.44 1284.34 489.44C1288.01 489.44 1290.99 486.472 1290.99 482.811C1290.99 479.15 1288.01 476.181 1284.34 476.181C1280.68 476.181 1277.7 479.15 1277.7 482.811Z" fill="#EAEAEB"/>
<path fill-rule="evenodd" clip-rule="evenodd" d="M1217.09 484.14H1282.73C1285.25 484.14 1287.3 482.086 1287.3 479.577C1287.3 477.068 1285.25 475.014 1282.73 475.014H1217.09C1214.57 475.014 1212.51 477.068 1212.51 479.577C1212.51 482.086 1214.57 484.14 1217.09 484.14Z" fill="#D4D4D7"/>
<path fill-rule="evenodd" clip-rule="evenodd" d="M1253.28 481.97H1246.54V401.672H1253.28V481.97Z" fill="#D4D4D7"/>
<path fill-rule="evenodd" clip-rule="evenodd" d="M1226.83 401.672L1249.91 412.164L1272.99 401.672H1226.83Z" fill="#D4D4D7"/>
<path fill-rule="evenodd" clip-rule="evenodd" d="M1254.99 482.811C1254.99 486.472 1257.96 489.44 1261.63 489.44C1265.3 489.44 1268.27 486.472 1268.27 482.811C1268.27 479.15 1265.3 476.181 1261.63 476.181C1257.96 476.181 1254.99 479.15 1254.99 482.811Z" fill="#EAEAEB"/>
<path fill-rule="evenodd" clip-rule="evenodd" d="M1208.39 482.811C1208.39 486.472 1211.37 489.44 1215.04 489.44C1218.7 489.44 1221.68 486.472 1221.68 482.811C1221.68 479.15 1218.7 476.181 1215.04 476.181C1211.37 476.181 1208.39 479.15 1208.39 482.811Z" fill="#EAEAEB"/>
<path d="M313.464 464.381L319.534 489.065L353.545 488.301L343.558 447.691L313.464 464.381Z" fill="#D4D4D7"/>
<path d="M414.946 486.82C407.557 505.439 376.259 487.569 361.534 476.307C356.307 473.869 346.428 468.679 348.731 467.42C351.033 466.161 366.398 465.547 373.793 465.398C390.589 464.78 422.334 468.2 414.946 486.82Z" fill="#EAEAEB"/>
<path d="M385.823 436.218C375.771 426.254 360.565 446.68 354.219 458.138C351.525 461.196 346.598 467.351 348.445 467.515C350.292 467.678 360.413 463.727 365.243 461.732C376.291 457.379 395.875 446.181 385.823 436.218Z" fill="#EAEAEB"/>
<path d="M751.118 455.379C762.178 453.536 772.647 461.062 774.501 472.19C776.356 483.317 768.893 493.831 757.833 495.675C746.774 497.518 736.305 489.992 734.45 478.865C732.596 467.737 740.058 457.223 751.118 455.379Z" fill="#FEFEFE"/>
<path d="M755.958 474.102C755.141 474.235 754.586 475.006 754.72 475.824C754.853 476.642 755.624 477.196 756.442 477.063L755.958 474.102ZM857.051 459.119L857.293 460.6L857.298 460.599L857.051 459.119ZM959.048 443.296C959.864 443.154 960.411 442.378 960.27 441.562C960.128 440.745 959.351 440.199 958.535 440.34L959.048 443.296ZM863.998 511.428C863.522 512.107 863.687 513.042 864.366 513.517C865.045 513.992 865.98 513.827 866.455 513.149L863.998 511.428ZM854.054 459.996C854.723 460.484 855.661 460.337 856.149 459.667C856.637 458.998 856.49 458.059 855.82 457.572L854.054 459.996ZM794.911 413.191C794.242 412.704 793.303 412.851 792.816 413.52C792.328 414.19 792.475 415.128 793.145 415.616L794.911 413.191ZM756.442 477.063L857.293 460.6L856.809 457.639L755.958 474.102L756.442 477.063ZM908.203 449.074L856.805 457.64L857.298 460.599L908.697 452.033L908.203 449.074ZM958.535 440.34L908.194 449.075L908.706 452.031L959.048 443.296L958.535 440.34ZM907.221 449.693L863.998 511.428L866.455 513.149L909.679 451.414L907.221 449.693ZM855.82 457.572L794.911 413.191L793.145 415.616L854.054 459.996L855.82 457.572ZM751.364 456.859C761.599 455.153 771.302 462.118 773.022 472.436L775.981 471.943C773.991 460.007 762.757 451.919 750.871 453.9L751.364 456.859ZM773.022 472.436C774.741 482.755 767.821 492.489 757.587 494.195L758.08 497.154C769.965 495.173 777.97 483.879 775.981 471.943L773.022 472.436ZM757.587 494.195C747.353 495.901 737.649 488.937 735.93 478.618L732.97 479.111C734.96 491.047 746.195 499.135 758.08 497.154L757.587 494.195ZM735.93 478.618C734.21 468.299 741.13 458.565 751.364 456.859L750.871 453.9C738.986 455.881 730.981 467.175 732.97 479.111L735.93 478.618Z" fill="#94959A"/>
<path d="M863.983 504.784C875.572 503.799 885.362 507.658 885.851 513.404C886.34 519.15 877.341 524.607 865.753 525.593C854.164 526.578 844.373 522.719 843.885 516.973C843.396 511.227 852.394 505.77 863.983 504.784Z" fill="#FEFEFE"/>
<path d="M864.11 506.279C869.724 505.802 874.83 506.507 878.529 507.965C882.326 509.462 884.187 511.536 884.356 513.531L887.345 513.277C887.026 509.526 883.747 506.798 879.629 505.174C875.415 503.513 869.83 502.782 863.856 503.29L864.11 506.279ZM884.356 513.531C884.526 515.527 883.042 517.885 879.553 520.001C876.153 522.063 871.24 523.621 865.626 524.098L865.88 527.087C871.854 526.579 877.235 524.916 881.109 522.566C884.893 520.271 887.664 517.028 887.345 513.277L884.356 513.531ZM865.626 524.098C860.011 524.576 854.906 523.87 851.206 522.412C847.41 520.915 845.549 518.841 845.379 516.846L842.39 517.1C842.709 520.851 845.988 523.58 850.106 525.203C854.321 526.864 859.905 527.595 865.88 527.087L865.626 524.098ZM845.379 516.846C845.21 514.851 846.693 512.492 850.183 510.376C853.583 508.314 858.496 506.757 864.11 506.279L863.856 503.29C857.882 503.798 852.501 505.462 848.627 507.811C844.842 510.106 842.071 513.35 842.39 517.1L845.379 516.846Z" fill="#94959A"/>
<ellipse cx="864.886" cy="511.423" rx="5.23819" ry="11.3921" transform="rotate(-96.1231 864.886 511.423)" fill="#94959A"/>
<ellipse cx="754.475" cy="475.527" rx="10.2128" ry="10.1509" transform="rotate(-99.4621 754.475 475.527)" fill="#94959A"/>
<path d="M792.554 413.695L793.926 408.62L792.24 407.911L793.212 406.301L792.152 402.546L793.159 402" stroke="black"/>
<path d="M792.474 414.089L791.246 410.671L790.01 410.937L789.924 409.64L787.839 407.932L788.194 407.225" stroke="black"/>
<path d="M792.686 414.359L784.535 414.544L784.203 417.364L781.387 416.624L776.246 419.847L775 418.59" stroke="black"/>
<ellipse cx="555.693" cy="529.073" rx="60.6521" ry="3.6983" transform="rotate(0.693482 555.693 529.073)" fill="#BFBFC2"/>
<ellipse cx="675.65" cy="529.599" rx="40.3115" ry="2.95864" fill="#BFBFC2"/>
<path d="M962.055 443.019C962.065 442.191 961.402 441.511 960.574 441.5C959.746 441.49 959.066 442.153 959.055 442.981L962.055 443.019ZM958.5 486.836C958.49 487.665 959.153 488.345 959.981 488.355C960.809 488.366 961.489 487.703 961.5 486.874L958.5 486.836ZM959.055 442.981L958.5 486.836L961.5 486.874L962.055 443.019L959.055 442.981Z" fill="#94959A"/>
<path d="M1000.3 485.636C1001.13 485.63 1001.8 486.297 1001.81 487.125C1001.82 487.954 1001.15 488.63 1000.32 488.636L1000.3 485.636ZM919.826 489.191C918.998 489.197 918.321 488.53 918.316 487.701C918.31 486.873 918.977 486.197 919.805 486.191L919.826 489.191ZM1000.32 488.636L919.826 489.191L919.805 486.191L1000.3 485.636L1000.32 488.636Z" fill="#94959A"/>
<path d="M576.33 428.835L542 343.467L587.341 337L599 424.137L594.188 531L576.33 428.835Z" fill="#53555D"/>
<path d="M590 337H537.344L549.004 418.342L512 527L576.326 418.342L590 337Z" fill="#3E3F49"/>
<path d="M624 178.5L632.412 236.983L646.524 243.676L624 178.5Z" fill="#94959A"/>
<path d="M604.923 244.959L589.195 237.953L600.123 214.39L594.086 202.037L599.606 198.099L633.761 207.051L640.325 216.251L633.492 218.35L630.298 223.563L622.389 221.65L617.829 223.055L627.104 228.776L624.436 232.847L614.94 232.461L609.347 234.631L604.923 244.959Z" fill="#A9AAAE"/>
<path d="M603.28 214.92L599.072 220.698L578.852 196.25L606.981 173.405L633.544 181.07L663.992 191.04L618.786 209.41L604.076 200.468L597.243 202.566L603.28 214.92Z" fill="#282A35"/>
<path d="M603.919 245.056L615.65 245.533L632.415 237.983L646.527 244.676L614.761 267.378L590.672 336.956L519.5 334L561 245.533L554.986 200.642L571.624 210.202L577.414 232.331L589.181 238.314L603.919 245.056Z" fill="#FEFEFE"/>
<path d="M555.293 200.465L578.552 190.89L619.5 177L589.5 197.5L572 209.5L555.293 200.465Z" fill="#A9AAAE"/>
<path d="M613.237 413.205L647.831 413.205L638.763 421.643L607.339 422.702L592.854 379.603L613.237 413.205Z" fill="#696A72"/>
<path d="M655.912 472.094L657.481 457.019L685.305 471.045L670.084 491.49L675.332 500.401L675.332 529.605L670.084 503.547L654.338 491.49L655.912 472.094Z" fill="#696A72"/>
<path d="M654.561 393.093L653.664 386.585L633.692 385.015L632.571 391.522L654.561 393.093Z" fill="#696A72"/>
<path d="M660.666 371.07L653.422 385.844L633.903 384.281L635.14 377.944L630.08 368.722L615.439 365.347L613.413 359.896L631.604 362.279L614.427 344.173L619.333 335.172L636.406 349.719L642.677 349.021L648.719 352.98L662.866 349.021L656.721 360.455L679.609 361.419L660.666 371.07Z" fill="#3E3F49"/>
<path d="M621.099 417.916L632.201 392.114L654.892 393.9L660.977 404.593L668.11 431.901L674.81 444.454L687.468 462.035L705.776 459.229L709.471 454.061L701.793 432.794L717.348 456.245L711.1 468.585L689.405 469.327L687.087 477.691L676.003 493.194L685.305 505.422L680.384 530.435L677.451 506.862L660.557 493.194L660.557 479.233L660.557 465.271L651.646 456.245L629.592 434.171L621.099 417.916Z" fill="#3E3F49"/>
<path d="M616.292 419.026L646.512 410.188L647.811 424.291L612.644 432.845L585.672 391.122L616.292 419.026Z" fill="#3E3F49"/>
<path d="M633.447 358.685C632.42 363.281 622.665 365.013 611.659 362.553C600.652 360.093 592.563 354.373 593.59 349.777C594.617 345.181 604.372 343.449 615.379 345.909C626.385 348.369 634.474 354.089 633.447 358.685Z" fill="#FEFEFE"/>
<path d="M631.983 358.358C631.84 358.998 631.37 359.672 630.361 360.303C629.346 360.938 627.888 361.459 626.033 361.788C622.329 362.446 617.344 362.287 611.986 361.089L611.331 364.017C616.98 365.279 622.375 365.484 626.557 364.742C628.644 364.371 630.505 363.751 631.953 362.846C633.406 361.937 634.54 360.67 634.911 359.012L631.983 358.358ZM611.986 361.089C606.628 359.892 602.05 357.913 598.978 355.741C597.439 354.653 596.342 353.561 595.694 352.554C595.05 351.554 594.911 350.744 595.054 350.104L592.126 349.45C591.756 351.108 592.243 352.736 593.171 354.178C594.095 355.613 595.515 356.967 597.246 358.191C600.714 360.643 605.683 362.754 611.331 364.017L611.986 361.089ZM595.054 350.104C595.197 349.464 595.667 348.79 596.676 348.159C597.691 347.524 599.149 347.004 601.004 346.674C604.709 346.017 609.694 346.176 615.051 347.373L615.706 344.446C610.057 343.183 604.662 342.978 600.48 343.72C598.393 344.091 596.532 344.711 595.085 345.616C593.631 346.526 592.497 347.792 592.126 349.45L595.054 350.104ZM615.051 347.373C620.409 348.571 624.988 350.549 628.059 352.721C629.598 353.809 630.696 354.901 631.344 355.908C631.987 356.908 632.126 357.718 631.983 358.358L634.911 359.012C635.281 357.355 634.794 355.726 633.866 354.284C632.942 352.849 631.522 351.496 629.791 350.272C626.323 347.82 621.354 345.708 615.706 344.446L615.051 347.373Z" fill="#94959A"/>
<ellipse cx="613.759" cy="354.188" rx="9.42464" ry="3.88455" transform="rotate(12.5989 613.759 354.188)" fill="#94959A" stroke="#94959A" stroke-width="3" stroke-linecap="round"/>
<path d="M660.642 371.07L653.397 385.843L633.878 384.281L635.115 377.944L631.58 362.279L614.403 344.173L619.333 335.397L636.381 349.719L642.652 349.021L648.695 352.98L663.314 349.021L655.236 358.734L679.585 361.418L660.642 371.07Z" fill="#3E3F49"/>
<path d="M1084.71 478.516C1085.91 477.531 1086.75 476.125 1086.75 474.438C1086.75 471.695 1084.43 469.375 1081.69 469.375H1080.63C1081.62 468.602 1082.25 467.406 1082.25 466C1082.25 463.539 1080.21 461.5 1077.75 461.5H1077.33C1077.54 460.797 1077.75 460.094 1077.75 459.25C1077.75 455.523 1074.73 452.5 1071 452.5C1070.58 452.5 1070.23 452.57 1069.88 452.641C1070.58 453.555 1071 454.68 1071 455.875C1071 459.039 1068.47 461.5 1065.38 461.5H1064.25C1061.72 461.5 1059.75 463.539 1059.75 466C1059.75 467.406 1060.31 468.602 1061.3 469.375H1060.31C1057.5 469.375 1055.25 471.695 1055.25 474.438C1055.25 476.125 1056.02 477.531 1057.22 478.516C1054.83 478.867 1053 480.977 1053 483.438C1053 486.25 1055.25 488.5 1058.06 488.5H1083.94C1086.68 488.5 1089 486.25 1089 483.438C1089 480.977 1087.1 478.867 1084.71 478.516ZM1066.5 470.5C1067.7 470.5 1068.75 471.555 1068.75 472.75C1068.75 474.016 1067.7 475 1066.5 475C1065.23 475 1064.25 474.016 1064.25 472.75C1064.25 471.555 1065.23 470.5 1066.5 470.5ZM1077.68 480.273C1076.98 482.242 1073.6 484 1071 484C1068.4 484 1065.02 482.242 1064.25 480.273C1064.11 479.922 1064.39 479.5 1064.81 479.5H1077.12C1077.54 479.5 1077.82 479.922 1077.68 480.273ZM1075.5 475C1074.23 475 1073.25 474.016 1073.25 472.75C1073.25 471.555 1074.23 470.5 1075.5 470.5C1076.7 470.5 1077.75 471.555 1077.75 472.75C1077.75 474.016 1076.7 475 1075.5 475Z" fill="#696A72"/>
<defs>
<filter id="filter0_i" x="0" y="489" width="1441" height="87" filterUnits="userSpaceOnUse" color-interpolation-filters="sRGB">
<feFlood flood-opacity="0" result="BackgroundImageFix"/>
<feBlend mode="normal" in="SourceGraphic" in2="BackgroundImageFix" result="shape"/>
<feColorMatrix in="SourceAlpha" type="matrix" values="0 0 0 0 0 0 0 0 0 0 0 0 0 0 0 0 0 0 127 0" result="hardAlpha"/>
<feOffset dy="1"/>
<feComposite in2="hardAlpha" operator="arithmetic" k2="-1" k3="1"/>
<feColorMatrix type="matrix" values="0 0 0 0 0.85098 0 0 0 0 0.85098 0 0 0 0 0.85098 0 0 0 1 0"/>
<feBlend mode="normal" in2="shape" result="effect1_innerShadow"/>
</filter>
</defs>
</svg>
