<svg width="90" height="90" viewBox="0 0 90 90" fill="none" xmlns="http://www.w3.org/2000/svg">
<circle cx="45" cy="45" r="40" stroke="#94959A" stroke-width="2"/>
<path d="M48.1217 43.5112H49.574V40.6454H48.1217V43.5112Z" fill="#94959A"/>
<path d="M43.0387 43.5112H40.1341V42.0783H43.0387V43.5112Z" fill="#94959A"/>
<path d="M39.9565 48.2882C40.8157 49.2338 42.3567 50.3822 44.223 50.722C46.1539 51.0736 48.3305 50.5381 50.3056 48.2777L49.2056 47.3421C47.5498 49.2371 45.8839 49.5673 44.4866 49.3129C43.0248 49.0467 41.7519 48.1175 41.0378 47.3316L39.9565 48.2882Z" fill="#94959A"/>
<path d="M25.567 33.6298C25.2292 33.4164 24.7801 33.5136 24.5638 33.8468C24.3476 34.18 24.4461 34.6231 24.7838 34.8365L26.8533 36.144C27.1911 36.3574 27.6402 36.2602 27.8564 35.927C28.0727 35.5938 27.9742 35.1507 27.6365 34.9373L25.567 33.6298Z" fill="#94959A"/>
<path d="M25.2843 37.6363C24.8833 37.6363 24.5581 37.9571 24.5581 38.3527C24.5581 38.7484 24.8833 39.0692 25.2843 39.0692H27.2449C27.6459 39.0692 27.9711 38.7484 27.9711 38.3527C27.9711 37.9571 27.6459 37.6363 27.2449 37.6363H25.2843Z" fill="#94959A"/>
<path d="M24.7397 41.1111C24.3386 41.1111 24.0135 41.4318 24.0135 41.8275C24.0135 42.2232 24.3386 42.544 24.7397 42.544H27.2449C27.6459 42.544 27.9711 42.2232 27.9711 41.8275C27.9711 41.4318 27.6459 41.1111 27.2449 41.1111H24.7397Z" fill="#94959A"/>
<path d="M24.5581 44.5859C24.1571 44.5859 23.832 44.9066 23.832 45.3023C23.832 45.698 24.1571 46.0188 24.5581 46.0188H27.2449C27.6459 46.0188 27.9711 45.698 27.9711 45.3023C27.9711 44.9066 27.6459 44.5859 27.2449 44.5859H24.5581Z" fill="#94959A"/>
<path d="M25.4658 48.0607C25.0648 48.0607 24.7397 48.3814 24.7397 48.7771C24.7397 49.1728 25.0648 49.4936 25.4658 49.4936H27.2449C27.6459 49.4936 27.9711 49.1728 27.9711 48.7771C27.9711 48.3814 27.6459 48.0607 27.2449 48.0607H25.4658Z" fill="#94959A"/>
<path d="M24.9938 51.5355C24.5928 51.5355 24.2677 51.8562 24.2677 52.2519C24.2677 52.6476 24.5928 52.9684 24.9938 52.9684H27.2449C27.6459 52.9684 27.9711 52.6476 27.9711 52.2519C27.9711 51.8562 27.6459 51.5355 27.2449 51.5355H24.9938Z" fill="#94959A"/>
<path d="M27.739 55.4278C28.0329 55.1586 28.0499 54.7052 27.777 54.4153C27.5041 54.1253 27.0447 54.1085 26.7508 54.3778L24.9717 56.0077C24.6778 56.277 24.6608 56.7303 24.9337 57.0202C25.2066 57.3102 25.6661 57.327 25.9599 57.0577L27.739 55.4278Z" fill="#94959A"/>
<path d="M65.5234 34.8365C65.8612 34.6231 65.9596 34.18 65.7434 33.8468C65.5271 33.5136 65.078 33.4164 64.7403 33.6298L62.6707 34.9373C62.333 35.1507 62.2345 35.5938 62.4508 35.927C62.6671 36.2602 63.1162 36.3574 63.4539 36.144L65.5234 34.8365Z" fill="#94959A"/>
<path d="M63.0623 37.6363C62.6613 37.6363 62.3362 37.9571 62.3362 38.3527C62.3362 38.7484 62.6613 39.0692 63.0623 39.0692H65.0229C65.424 39.0692 65.7491 38.7484 65.7491 38.3527C65.7491 37.9571 65.424 37.6363 65.0229 37.6363H63.0623Z" fill="#94959A"/>
<path d="M63.0623 41.1111C62.6613 41.1111 62.3362 41.4318 62.3362 41.8275C62.3362 42.2232 62.6613 42.544 63.0623 42.544H65.5675C65.9686 42.544 66.2937 42.2232 66.2937 41.8275C66.2937 41.4318 65.9686 41.1111 65.5675 41.1111H63.0623Z" fill="#94959A"/>
<path d="M63.0623 44.5859C62.6613 44.5859 62.3362 44.9066 62.3362 45.3023C62.3362 45.698 62.6613 46.0188 63.0623 46.0188H65.7491C66.1501 46.0188 66.4752 45.698 66.4752 45.3023C66.4752 44.9066 66.1501 44.5859 65.7491 44.5859H63.0623Z" fill="#94959A"/>
<path d="M63.0623 48.0607C62.6613 48.0607 62.3362 48.3814 62.3362 48.7771C62.3362 49.1728 62.6613 49.4936 63.0623 49.4936H64.8414C65.2424 49.4936 65.5675 49.1728 65.5675 48.7771C65.5675 48.3814 65.2424 48.0607 64.8414 48.0607H63.0623Z" fill="#94959A"/>
<path d="M63.0623 51.5355C62.6613 51.5355 62.3362 51.8562 62.3362 52.2519C62.3362 52.6476 62.6613 52.9684 63.0623 52.9684H65.3134C65.7144 52.9684 66.0395 52.6476 66.0395 52.2519C66.0395 51.8562 65.7144 51.5355 65.3134 51.5355H63.0623Z" fill="#94959A"/>
<path d="M63.5564 54.3778C63.2625 54.1085 62.8031 54.1253 62.5302 54.4153C62.2573 54.7052 62.2743 55.1586 62.5682 55.4278L64.3473 57.0577C64.6411 57.327 65.1006 57.3102 65.3735 57.0202C65.6464 56.7303 65.6294 56.277 65.3355 56.0077L63.5564 54.3778Z" fill="#94959A"/>
<path fill-rule="evenodd" clip-rule="evenodd" d="M66.9823 28.5521C66.9338 28.349 66.7979 28.1768 66.6102 28.0806C66.4225 27.9845 66.2017 27.9738 66.0053 28.0514L57.6813 31.3436C49.19 29.9307 40.7028 29.9602 32.2233 31.4323L23.7197 28.0868C23.5203 28.0083 23.296 28.021 23.1069 28.1212C22.9178 28.2215 22.7834 28.3992 22.7398 28.6066C20.4199 39.6296 20.4205 50.773 22.7392 62.0309C22.7851 62.2541 22.936 62.4425 23.1455 62.5383C23.355 62.634 23.5982 62.6258 23.8005 62.5161L31.798 58.1788C40.585 59.7458 49.3683 59.7753 58.1441 58.2671L65.9262 62.4805C66.1226 62.5868 66.3577 62.5977 66.5634 62.5101C66.7691 62.4225 66.9222 62.2461 66.9785 62.0321C68.3628 56.7619 69.0353 51.2308 68.9986 45.4411C68.9619 39.6572 68.2902 34.0272 66.9823 28.5521ZM58.9788 56.6568L58.5048 32.9389C59.0733 33.0399 59.6436 33.1476 60.2156 33.262C59.3632 40.9789 59.3632 48.6962 60.2158 56.4131C59.8047 56.4968 59.3924 56.578 58.9788 56.6568ZM57.0473 32.6923L57.5314 56.917C49.1634 58.3138 40.7914 58.2853 32.4119 56.8313L32.8614 32.7774C40.9184 31.4212 48.9793 31.3928 57.0473 32.6923ZM31.1043 49.0745L30.9644 56.5582C30.7354 56.5126 30.5057 56.4664 30.2755 56.4197C30.6839 53.9925 30.9601 51.5441 31.1043 49.0745ZM31.404 33.0347L31.2074 43.5557C31.1378 40.1606 30.8251 36.7266 30.2695 33.2542C30.6488 33.1779 31.027 33.1047 31.404 33.0347ZM29.29 31.9921C29.3849 31.9721 29.4797 31.9523 29.5744 31.9328L23.99 29.7357C21.9465 39.979 21.9394 50.3283 23.9709 60.7886L29.5875 57.7425C29.4893 57.7223 29.3909 57.7021 29.2925 57.6817C28.9089 57.6023 28.6583 57.2369 28.7264 56.856C30.1175 49.0759 30.1187 41.0621 28.7252 32.8105C28.6614 32.4326 28.9102 32.072 29.29 31.9921ZM61.1624 57.6812C60.9019 57.736 60.6408 57.7899 60.3793 57.8428L65.8 60.7777C66.9973 55.904 67.5802 50.7955 67.5463 45.4501C67.5121 40.0568 66.9157 34.8049 65.7578 29.6931L60.3582 31.8286C60.6254 31.8816 60.893 31.936 61.1609 31.9918C61.5276 32.0681 61.7752 32.4073 61.7323 32.7747C60.7941 40.8162 60.7941 48.8571 61.7323 56.8986C61.7751 57.2653 61.5284 57.6042 61.1624 57.6812Z" fill="#94959A"/>
</svg>
