<svg width="90" height="90" viewBox="0 0 90 90" fill="none" xmlns="http://www.w3.org/2000/svg">
<circle cx="45" cy="45" r="40" stroke="#94959A" stroke-width="2"/>
<path fill-rule="evenodd" clip-rule="evenodd" d="M57.3123 21.497C57.1276 21.0761 56.6384 20.8854 56.2196 21.0711C56.2106 21.0751 56.2017 21.0792 56.1928 21.0835H32.9857C32.9782 21.0798 32.9706 21.0763 32.9629 21.0728C32.5451 20.885 32.0549 21.0731 31.868 21.493L28.5652 28.9134H25.8289C25.3712 28.9134 25.0002 29.2863 25.0002 29.7464V33.7693C24.9991 33.8215 25.003 33.8746 25.0122 33.9279C25.0133 33.9342 25.0145 33.9406 25.0157 33.9469L25.1396 34.5901C25.2265 35.0418 25.6613 35.337 26.1107 35.2496C26.1658 35.2389 26.2185 35.2229 26.2685 35.2023H29.0195L35.5251 68.3961C35.5527 68.5627 35.6494 68.7085 35.8151 68.8334C35.967 68.9445 36.1397 69 36.3331 69H52.9077C53.1011 69 53.2806 68.9445 53.4464 68.8334C53.5983 68.7085 53.695 68.5627 53.7364 68.3961L60.242 35.2023H62.8687C62.9143 35.2211 62.9621 35.236 63.012 35.2467C63.4597 35.3421 63.8997 35.0547 63.9947 34.6047L64.136 33.9347C64.1439 33.901 64.1497 33.8665 64.1533 33.8314C64.157 33.7964 64.1584 33.7615 64.1577 33.727V29.7464C64.1577 29.2863 63.7867 28.9134 63.329 28.9134H60.6131L57.6231 22.205L57.6212 22.2007L57.3123 21.497ZM33.208 22.562L30.381 28.9134H58.7969L56.1086 22.8817L56.1059 22.8756L55.9682 22.562H33.208ZM29.1203 30.5793H60.0583C60.0705 30.5796 60.0828 30.5796 60.0951 30.5793H62.5003V32.9126L26.6576 32.9524V30.5793H29.0835C29.0958 30.5796 29.1081 30.5796 29.1203 30.5793ZM31.9387 41.5121L34.5564 54.8343C34.6084 54.8241 34.6621 54.8187 34.717 54.8187H54.5444C54.5994 54.8187 54.6531 54.8241 54.705 54.8343L57.3228 41.5121H31.9387ZM57.6472 39.8618L58.5638 35.2023H30.6977L31.6143 39.8618C31.6663 39.8515 31.72 39.8461 31.775 39.8461H57.4864C57.5414 39.8461 57.5952 39.8515 57.6472 39.8618ZM54.3816 56.4847H34.8799L37.0375 67.5215H52.224L54.3816 56.4847Z" fill="#94959A"/>
</svg>
