<svg fill="none" xmlns="http://www.w3.org/2000/svg">
	<path
		d="M74.7752 93.7187L74.4298 92.7803L74.4284 92.7808L74.7752 93.7187ZM85.1203 86.9796L84.4153 86.2703L84.4074 86.2783L85.1203 86.9796ZM44.5789 46.684L45.2839 47.3932L44.5789 46.684ZM44.5789 86.9796L43.874 87.6889H43.874L44.5789 86.9796ZM56.4022 95.1681C56.9341 95.3168 57.4858 95.0062 57.6345 94.4743C57.7832 93.9424 57.4725 93.3906 56.9406 93.242L56.4022 95.1681ZM65.5105 94.6647C64.9586 94.6858 64.5283 95.1502 64.5493 95.7021C64.5703 96.254 65.0348 96.6843 65.5866 96.6633L65.5105 94.6647ZM66.4791 53.2874C66.481 52.7352 66.0348 52.286 65.4825 52.2841C64.9302 52.2823 64.481 52.7285 64.4792 53.2808L66.4791 53.2874ZM65.4093 74.2656L64.4093 74.2623V74.2656H65.4093ZM64.4792 95.4622C64.4829 96.0145 64.9335 96.4592 65.4858 96.4556C66.0381 96.4519 66.4828 96.0012 66.4791 95.4489L64.4792 95.4622ZM55.0652 73.4129C54.671 73.0261 54.0378 73.0321 53.651 73.4263C53.2642 73.8205 53.2702 74.4536 53.6643 74.8404L55.0652 73.4129ZM64.8482 73.135C64.454 73.5219 64.448 74.155 64.8348 74.5492C65.2217 74.9434 65.8548 74.9493 66.249 74.5625L64.8482 73.135ZM77.2935 63.7244C77.6877 63.3376 77.6936 62.7044 77.3068 62.3102C76.92 61.916 76.2869 61.9101 75.8927 62.2969L77.2935 63.7244ZM75.1207 94.6571C79.0356 93.216 82.6556 90.911 85.8331 87.6809L84.4074 86.2783C81.4339 89.301 78.0639 91.4424 74.4298 92.7803L75.1207 94.6571ZM85.8252 87.6889C91.606 81.9431 94.5081 74.9487 94.5081 66.8318H92.5081C92.5081 74.4163 89.8183 80.9001 84.4153 86.2704L85.8252 87.6889ZM94.5081 66.8318C94.5081 58.6441 91.6051 51.7195 85.8252 45.9747L84.4153 47.3932C89.8193 52.7644 92.5081 59.1792 92.5081 66.8318H94.5081ZM85.8252 45.9747C80.0446 40.2292 73.0105 37.3469 64.8496 37.3469V39.3469C72.4859 39.3469 79.0121 42.0227 84.4153 47.3932L85.8252 45.9747ZM64.8496 37.3469C56.6887 37.3469 49.6545 40.2292 43.874 45.9747L45.2839 47.3932C50.6871 42.0227 57.2133 39.3469 64.8496 39.3469V37.3469ZM43.874 45.9747C38.0932 51.7205 35.191 58.7149 35.191 66.8318H37.191C37.191 59.2473 39.8808 52.7635 45.2839 47.3932L43.874 45.9747ZM35.191 66.8318C35.191 74.9487 38.0932 81.9431 43.874 87.6889L45.2839 86.2704C39.8808 80.9001 37.191 74.4163 37.191 66.8318H35.191ZM43.874 87.6889C47.5484 91.3411 51.7491 93.8674 56.4022 95.1681L56.9406 93.242C52.6466 92.0416 48.7391 89.7046 45.2839 86.2704L43.874 87.6889ZM65.5866 96.6633C68.7126 96.5442 72.3919 95.6664 75.1221 94.6566L74.4284 92.7808C71.8459 93.7359 68.3778 94.5555 65.5105 94.6647L65.5866 96.6633ZM64.4792 53.2808L64.4093 74.2623L66.4092 74.269L66.4791 53.2874L64.4792 53.2808ZM66.4093 84.9648V74.2656H64.4093V84.9648H66.4093ZM66.4791 95.4489L66.4092 84.9582L64.4093 84.9715L64.4792 95.4622L66.4791 95.4489ZM66.1097 84.2511L55.0652 73.4129L53.6643 74.8404L64.7088 85.6786L66.1097 84.2511ZM66.249 74.5625L77.2935 63.7244L75.8927 62.2969L64.8482 73.135L66.249 74.5625ZM68.7425 52.9367C68.7425 54.6809 67.3183 56.1052 65.5486 56.1052V58.1052C68.4114 58.1052 70.7425 55.7969 70.7425 52.9367H68.7425ZM65.5486 56.1052C63.7789 56.1052 62.3546 54.6809 62.3546 52.9367H60.3546C60.3546 55.7969 62.6858 58.1052 65.5486 58.1052V56.1052ZM62.3546 52.9367C62.3546 51.1925 63.7789 49.7682 65.5486 49.7682V47.7682C62.6858 47.7682 60.3546 50.0765 60.3546 52.9367H62.3546ZM65.5486 49.7682C67.3183 49.7682 68.7425 51.1925 68.7425 52.9367H70.7425C70.7425 50.0765 68.4114 47.7682 65.5486 47.7682V49.7682ZM79.9263 63.358C79.9263 65.1022 78.5021 66.5265 76.7324 66.5265V68.5265C79.5952 68.5265 81.9263 66.2182 81.9263 63.358H79.9263ZM76.7324 66.5265C74.9627 66.5265 73.5385 65.1022 73.5385 63.358H71.5385C71.5385 66.2182 73.8696 68.5265 76.7324 68.5265V66.5265ZM73.5385 63.358C73.5385 61.6138 74.9627 60.1895 76.7324 60.1895V58.1895C73.8696 58.1895 71.5385 60.4978 71.5385 63.358H73.5385ZM76.7324 60.1895C78.5021 60.1895 79.9263 61.6138 79.9263 63.358H81.9263C81.9263 60.4978 79.5952 58.1895 76.7324 58.1895V60.1895ZM57.5587 73.7793C57.5587 75.5235 56.1345 76.9478 54.3648 76.9478V78.9478C57.2275 78.9478 59.5587 76.6395 59.5587 73.7793H57.5587ZM54.3648 76.9478C52.5951 76.9478 51.1708 75.5235 51.1708 73.7793H49.1708C49.1708 76.6395 51.502 78.9478 54.3648 78.9478V76.9478ZM51.1708 73.7793C51.1708 72.0351 52.5951 70.6108 54.3648 70.6108V68.6108C51.502 68.6108 49.1708 70.9191 49.1708 73.7793H51.1708ZM54.3648 70.6108C56.1345 70.6108 57.5587 72.0351 57.5587 73.7793H59.5587C59.5587 70.9191 57.2275 68.6108 54.3648 68.6108V70.6108Z"
		fill="#2F54EB"
	/>
	<ellipse
		cx="54.3648"
		cy="73.7794"
		rx="2.09697"
		ry="2.08426"
		fill="#282A35"
	/>
	<ellipse
		cx="76.7326"
		cy="63.3579"
		rx="2.09696"
		ry="2.08426"
		fill="#282A35"
	/>
	<ellipse
		cx="65.5486"
		cy="52.9367"
		rx="2.09697"
		ry="2.08426"
		fill="#282A35"
	/>
	<ellipse
		cx="76.6323"
		cy="62.6323"
		rx="9.6323"
		ry="9.6323"
		fill="url(#paint0_radial)"
	/>
	<circle cx="65.6323" cy="52.6323" r="9.6323" fill="url(#paint1_radial)" />
	<circle cx="54.2998" cy="73.7938" r="9.6323" fill="url(#paint2_radial)" />
	<g filter="url(#filter0_f)">
		<circle
			cx="64.8952"
			cy="67.0511"
			r="30.4748"
			stroke="#2F54EB"
			stroke-width="2"
		/>
	</g>
	<line
		x1="66.0001"
		y1="17"
		x2="66.0001"
		y2="24.1463"
		stroke="#2F54EB"
		stroke-width="2"
		stroke-linecap="round"
		stroke-linejoin="bevel"
	/>
	<line
		x1="23.1464"
		y1="68.8293"
		x2="16"
		y2="68.8293"
		stroke="#2F54EB"
		stroke-width="2"
		stroke-linecap="round"
		stroke-linejoin="bevel"
	/>
	<line
		x1="36.7265"
		y1="98.5119"
		x2="31.6583"
		y2="103.55"
		stroke="#2F54EB"
		stroke-width="2"
		stroke-linecap="round"
		stroke-linejoin="bevel"
	/>
	<line
		x1="35.5111"
		y1="39.1655"
		x2="30.4769"
		y2="34.0932"
		stroke="#2F54EB"
		stroke-width="2"
		stroke-linecap="round"
		stroke-linejoin="bevel"
	/>
	<line
		x1="114"
		y1="68.8293"
		x2="106.854"
		y2="68.8293"
		stroke="#2F54EB"
		stroke-width="2"
		stroke-linecap="round"
		stroke-linejoin="bevel"
	/>
	<line
		x1="101.16"
		y1="33.8776"
		x2="96.0919"
		y2="38.9158"
		stroke="#2F54EB"
		stroke-width="2"
		stroke-linecap="round"
		stroke-linejoin="bevel"
	/>
	<line
		x1="99.5121"
		y1="103.8"
		x2="94.4779"
		y2="98.7274"
		stroke="#2F54EB"
		stroke-width="2"
		stroke-linecap="round"
		stroke-linejoin="bevel"
	/>
	<line
		x1="72.2994"
		y1="106.026"
		x2="60.2573"
		y2="106.026"
		stroke="#696A72"
		stroke-width="2"
		stroke-linecap="round"
		stroke-linejoin="bevel"
	/>
	<line
		x1="72.2994"
		y1="110.414"
		x2="60.2573"
		y2="110.414"
		stroke="#696A72"
		stroke-width="2"
		stroke-linecap="round"
		stroke-linejoin="bevel"
	/>
	<line
		x1="72.2994"
		y1="114.802"
		x2="60.2573"
		y2="114.802"
		stroke="#696A72"
		stroke-width="2"
		stroke-linecap="round"
		stroke-linejoin="bevel"
	/>
	<line
		x1="68.7891"
		y1="119.191"
		x2="63.768"
		y2="119.191"
		stroke="#696A72"
		stroke-width="2"
		stroke-linecap="round"
		stroke-linejoin="bevel"
	/>
	<defs>
		<filter
			id="filter0_f"
			x="25.4204"
			y="27.5763"
			width="78.9497"
			height="78.9497"
			filterUnits="userSpaceOnUse"
			color-interpolation-filters="sRGB"
		>
			<feFlood flood-opacity="0" result="BackgroundImageFix" />
			<feBlend
				mode="normal"
				in="SourceGraphic"
				in2="BackgroundImageFix"
				result="shape"
			/>
			<feGaussianBlur stdDeviation="4" result="effect1_foregroundBlur" />
		</filter>
		<radialGradient
			id="paint0_radial"
			cx="0"
			cy="0"
			r="1"
			gradientUnits="userSpaceOnUse"
			gradientTransform="translate(76.6323 62.6323) rotate(90) scale(9.6323)"
		>
			<stop stop-color="#2F54EB" />
			<stop offset="1" stop-color="#2F54EB" stop-opacity="0" />
		</radialGradient>
		<radialGradient
			id="paint1_radial"
			cx="0"
			cy="0"
			r="1"
			gradientUnits="userSpaceOnUse"
			gradientTransform="translate(65.6323 52.6323) rotate(90) scale(9.6323)"
		>
			<stop stop-color="#2F54EB" />
			<stop offset="1" stop-color="#2F54EB" stop-opacity="0" />
		</radialGradient>
		<radialGradient
			id="paint2_radial"
			cx="0"
			cy="0"
			r="1"
			gradientUnits="userSpaceOnUse"
			gradientTransform="translate(54.2998 73.7938) rotate(90) scale(9.6323)"
		>
			<stop stop-color="#2F54EB" />
			<stop offset="1" stop-color="#2F54EB" stop-opacity="0" />
		</radialGradient>
	</defs>
</svg>
