<svg width="100" height="100" viewBox="0 0 100 100" fill="none" xmlns="http://www.w3.org/2000/svg">
<path d="M50 50.3789L35.5505 64.7429L50 79.1069L64.4495 64.7429L50 50.3789Z" fill="#EE9849"/>
<path d="M63.7403 34.364L50 48.023L36.2598 34.364L50 20.705L63.7403 34.364Z" stroke="#D4D4D4"/>
<path d="M65.273 63.3228L51.5327 49.6638L65.273 36.0048L79.0177 49.6638L65.273 63.3228Z" stroke="#D4D4D4"/>
<path d="M34.7269 63.3228L20.9823 49.6638L34.7269 36.0048L48.4672 49.6638L34.7269 63.3228Z" stroke="#D4D4D4"/>
<path d="M19.4495 50.5996L5 64.9636L19.4495 79.3276L33.9035 64.9636L19.4495 50.5996Z" fill="#EE9849"/>
<path d="M80.546 50.5996L66.092 64.9636L80.546 79.3276L95 64.9636L80.546 50.5996Z" fill="#EE9849"/>
<line y1="-0.5" x2="11.5302" y2="-0.5" transform="matrix(0.0454077 0.998969 0.998969 -0.0454077 7 24)" stroke="#D4D4D4"/>
<line y1="-0.5" x2="21" y2="-0.5" transform="matrix(4.37114e-08 1 1 -4.37114e-08 29.5237 73)" stroke="#D4D4D4"/>
<line y1="-0.5" x2="21" y2="-0.5" transform="matrix(4.37114e-08 1 1 -4.37114e-08 83.5237 0)" stroke="#D4D4D4"/>
<line y1="-0.5" x2="11.5302" y2="-0.5" transform="matrix(0.0454077 0.998969 0.998969 -0.0454077 60 73)" stroke="#D4D4D4"/>
</svg>
