<svg width="100" height="100" viewBox="0 0 100 100" fill="none" xmlns="http://www.w3.org/2000/svg">
<path d="M50 50.3789L35.5505 64.7429L50 79.1069L64.4495 64.7429L50 50.3789Z" fill="#EE9849"/>
<path d="M50 20L35.5505 34.364L50 48.728L64.4495 34.364L50 20Z" fill="#7E5DA7"/>
<path d="M65.273 35.2998L50.8235 49.6638L65.273 64.0278L79.727 49.6638L65.273 35.2998Z" fill="#ED4847"/>
<path d="M34.7269 35.2998L20.2729 49.6638L34.7269 64.0278L49.1764 49.6638L34.7269 35.2998Z" fill="#ED4847"/>
<path d="M19.4495 50.5996L5 64.9636L19.4495 79.3276L33.9035 64.9636L19.4495 50.5996Z" fill="#EE9849"/>
<path d="M80.546 50.5996L66.092 64.9636L80.546 79.3276L95 64.9636L80.546 50.5996Z" fill="#EE9849"/>
<line y1="-0.5" x2="12" y2="-0.5" transform="matrix(-4.37114e-08 -1 -1 4.37114e-08 7 99)" stroke="#D4D4D4"/>
<line x1="28.5" y1="27" x2="28.5" y2="6" stroke="#D4D4D4"/>
<line x1="92.5" y1="94" x2="92.5" y2="73" stroke="#D4D4D4"/>
<line y1="-0.5" x2="12" y2="-0.5" transform="matrix(-4.37114e-08 -1 -1 4.37114e-08 70 31)" stroke="#D4D4D4"/>
</svg>
