<svg width="100" height="100" viewBox="0 0 100 100" fill="none" xmlns="http://www.w3.org/2000/svg">
<path d="M50 50.3789L35.5505 64.7429L50 79.1069L64.4495 64.7429L50 50.3789Z" fill="#EE9849"/>
<path d="M63.7403 34.364L50 48.023L36.2598 34.364L50 20.705L63.7403 34.364Z" stroke="#D4D4D4"/>
<path d="M65.273 35.2998L50.8235 49.6638L65.273 64.0278L79.727 49.6638L65.273 35.2998Z" fill="#ED4847"/>
<path d="M34.7269 35.2998L20.2729 49.6638L34.7269 64.0278L49.1764 49.6638L34.7269 35.2998Z" fill="#ED4847"/>
<path d="M19.4495 50.5996L5 64.9636L19.4495 79.3276L33.9035 64.9636L19.4495 50.5996Z" fill="#EE9849"/>
<path d="M80.546 50.5996L66.092 64.9636L80.546 79.3276L95 64.9636L80.546 50.5996Z" fill="#EE9849"/>
<line x1="82.5" y1="100" x2="82.5" y2="88" stroke="#D4D4D4"/>
<line y1="-0.5" x2="21" y2="-0.5" transform="matrix(-4.37114e-08 -1 -1 4.37114e-08 68 21)" stroke="#D4D4D4"/>
<line y1="-0.5" x2="21" y2="-0.5" transform="matrix(-4.37114e-08 -1 -1 4.37114e-08 10 94)" stroke="#D4D4D4"/>
<line x1="25.5" y1="32" x2="25.5" y2="20" stroke="#D4D4D4"/>
</svg>
