<svg width="100" height="100" viewBox="0 0 100 100" fill="none" xmlns="http://www.w3.org/2000/svg">
<path d="M63.7401 64.7439L49.9998 78.4029L36.2595 64.7439L49.9998 51.0849L63.7401 64.7439Z" stroke="#D5D5D5"/>
<path d="M63.7401 34.364L49.9998 48.023L36.2595 34.364L49.9998 20.705L63.7401 34.364Z" stroke="#D5D5D5"/>
<path d="M65.273 63.3228L51.5327 49.6638L65.273 36.0048L79.0177 49.6638L65.273 63.3228Z" stroke="#D5D5D5"/>
<path d="M34.7269 63.3228L20.9823 49.6638L34.7269 36.0048L48.4672 49.6638L34.7269 63.3228Z" stroke="#D5D5D5"/>
<path d="M19.4496 78.6226L5.70921 64.9636L19.4496 51.3046L33.1942 64.9636L19.4496 78.6226Z" stroke="#D5D5D5"/>
<path d="M94.2907 64.9636L80.546 78.6227L66.8014 64.9636L80.546 51.3045L94.2907 64.9636Z" stroke="#D5D5D5"/>
</svg>
