<svg width="90" height="90" viewBox="0 0 90 90" fill="none" xmlns="http://www.w3.org/2000/svg">
<circle cx="45" cy="45" r="40" stroke="#94959A" stroke-width="2"/>
<path d="M53.4395 33.3705L55.2742 30.3254L56.5189 31.1324L54.6842 34.1775L53.4395 33.3705Z" fill="#94959A"/>
<path d="M42.2298 27.9982L42.9987 31.8914L44.4367 31.5858L43.6678 27.6927L42.2298 27.9982Z" fill="#94959A"/>
<path d="M48.1872 28.0416L47.9352 32.007L49.3998 32.1071L49.6518 28.1418L48.1872 28.0416Z" fill="#94959A"/>
<path d="M57.8429 37.3164L61.1292 35.2737L61.8837 36.5798L58.5974 38.6224L57.8429 37.3164Z" fill="#94959A"/>
<path d="M63.7977 40.9833L60.0446 41.7813L60.3394 43.2729L64.0925 42.4749L63.7977 40.9833Z" fill="#94959A"/>
<path d="M37.6172 33.228L35.4587 29.9448L36.6714 29.087L38.8298 32.3702L37.6172 33.228Z" fill="#94959A"/>
<path d="M34.7248 36.4156L31.0552 34.8931L31.6004 33.4794L35.2699 35.002L34.7248 36.4156Z" fill="#94959A"/>
<path d="M60.7785 45.9316L65.182 47.0735L64.826 48.5506L60.4225 47.4087L60.7785 45.9316Z" fill="#94959A"/>
<path d="M63.7142 53.1637L60.7785 50.4993L59.812 51.6451L62.7476 54.3096L63.7142 53.1637Z" fill="#94959A"/>
<path d="M30.046 45.4405L33.098 47.8426L33.9853 46.6297L30.9333 44.2276L30.046 45.4405Z" fill="#94959A"/>
<path d="M27.3857 51.5833L31.3314 51.8181L31.4155 50.298L27.4697 50.0633L27.3857 51.5833Z" fill="#94959A"/>
<path fill-rule="evenodd" clip-rule="evenodd" d="M28.9652 40.1325C27.6058 40.0186 26.5314 39.9536 25.738 39.9364C25.0844 39.9232 24.4094 39.8104 23.9669 39.3882C23.7186 39.1512 23.5707 38.8417 23.5393 38.4933C23.5098 38.1666 23.586 37.8503 23.6995 37.5685L23.7016 37.5633C26.4648 30.8447 31.4737 26.5925 38.6454 24.8271C46.0342 22.9766 52.8745 24.2316 59.1138 28.5891C65.7799 33.1996 69.0866 39.7351 68.9983 48.1096L68.9983 48.1102C68.9479 52.5348 67.9084 56.6258 65.8766 60.3696L65.872 60.378C65.6036 60.8582 65.2857 61.2811 64.8921 61.5363C64.547 61.76 64.1594 61.8416 63.773 61.7507C63.3419 61.8508 62.9083 61.7225 62.5477 61.5365C61.0361 60.784 59.5004 60.0879 57.9404 59.4482L57.94 59.4481L56.9179 59.0315C51.7608 57.0025 46.4482 55.7629 40.9782 55.312C36.7411 54.9633 32.5911 55.2105 28.5262 56.052C26.3007 56.8055 24.6894 57.4075 23.6759 57.8597L23.6671 57.8636L23.6611 57.8662C23.0935 58.1043 22.459 58.2703 21.9107 58.068C21.6029 57.9545 21.3576 57.7371 21.201 57.4405C21.0542 57.1624 21.0049 56.8534 21.0008 56.5626L21.0007 56.5574C20.9505 49.8743 23.6278 44.3828 28.9652 40.1325ZM58.2953 29.853C52.4014 25.7361 45.9834 24.5552 38.9886 26.3075L38.9857 26.3082C32.2395 27.9685 27.6228 31.9116 25.0529 38.1579C25.0285 38.2187 25.0155 38.2638 25.0086 38.2952C25.0371 38.3085 25.0802 38.3253 25.1426 38.3421C25.284 38.3802 25.4876 38.4085 25.767 38.4141L25.768 38.4142C26.9699 38.4401 28.7465 38.5692 31.086 38.7979L31.0874 38.798L31.4886 38.8358C31.517 38.8385 31.5452 38.8429 31.5731 38.849C33.0525 39.1714 34.5192 39.5711 35.9732 40.048C36.8797 40.3443 37.7857 40.6726 38.6914 41.0328L38.6938 41.0338L38.9823 41.146L38.9895 41.1488C40.9136 41.9214 42.7999 42.8225 44.6481 43.8518C49.5354 46.5471 54.0028 49.8462 58.049 53.7481L58.0518 53.7508C58.4582 54.1468 58.8584 54.5428 59.2526 54.9389L59.2609 54.9473L60.1073 55.8253C61.4031 57.1822 62.6557 58.5839 63.865 60.0303C63.9608 60.1451 64.0373 60.2161 64.0923 60.258C64.0945 60.2569 64.0968 60.2556 64.0993 60.2542L64.1019 60.2527C64.1056 60.2506 64.1097 60.248 64.1142 60.2451C64.2095 60.1833 64.38 60.0109 64.5998 59.6186C66.5051 56.1061 67.483 52.2684 67.5305 48.0923C67.6133 40.2271 64.5477 34.1767 58.2981 29.855L58.2953 29.853ZM64.0745 60.2658C64.0738 60.266 64.0741 60.2658 64.0753 60.2656L64.0745 60.2658ZM61.1932 59.2116C60.4973 58.4258 59.7878 57.6542 59.0645 56.8968L58.2271 56.0282C57.8402 55.6395 57.4473 55.2507 57.0483 54.8619C53.0956 51.0505 48.7326 47.8286 43.9578 45.1954L43.9551 45.194C42.1599 44.1941 40.3293 43.3196 38.4633 42.5702L38.1793 42.4597L39.0616 44.0387L37.7917 44.8022L36.0417 41.6702C35.8717 41.6123 35.7017 41.5556 35.5317 41.5L35.531 41.4998C34.1364 41.0424 32.7305 40.6585 31.313 40.3481L31.2053 40.3379C30.8169 40.6036 30.4321 40.8871 30.051 41.1888L30.0472 41.1918C24.9251 45.192 22.4223 50.2917 22.4684 56.5426C22.4691 56.5808 22.4713 56.6115 22.4741 56.6357C22.4972 56.6346 22.5262 56.6319 22.562 56.6264C22.6901 56.6065 22.8683 56.5559 23.1036 56.4577C24.188 55.9743 25.8631 55.3513 28.1122 54.5906C28.1395 54.5814 28.1673 54.5738 28.1954 54.5679C32.4102 53.691 36.7105 53.4335 41.0944 53.7942C46.705 54.2567 52.1551 55.5288 57.4427 57.6096L57.4507 57.6128L58.4797 58.0321C59.3923 58.4064 60.2968 58.7995 61.1932 59.2116Z" fill="#94959A"/>
<path d="M53.4395 33.3705L55.2742 30.3254L56.5189 31.1324L54.6842 34.1775L53.4395 33.3705Z" stroke="#94959A"/>
<path d="M42.2298 27.9982L42.9987 31.8914L44.4367 31.5858L43.6678 27.6927L42.2298 27.9982Z" stroke="#94959A"/>
<path d="M48.1872 28.0416L47.9352 32.007L49.3998 32.1071L49.6518 28.1418L48.1872 28.0416Z" stroke="#94959A"/>
<path d="M57.8429 37.3164L61.1292 35.2737L61.8837 36.5798L58.5974 38.6224L57.8429 37.3164Z" stroke="#94959A"/>
<path d="M63.7977 40.9833L60.0446 41.7813L60.3394 43.2729L64.0925 42.4749L63.7977 40.9833Z" stroke="#94959A"/>
<path d="M37.6172 33.228L35.4587 29.9448L36.6714 29.087L38.8298 32.3702L37.6172 33.228Z" stroke="#94959A"/>
<path d="M34.7248 36.4156L31.0552 34.8931L31.6004 33.4794L35.2699 35.002L34.7248 36.4156Z" stroke="#94959A"/>
<path d="M60.7785 45.9316L65.182 47.0735L64.826 48.5506L60.4225 47.4087L60.7785 45.9316Z" stroke="#94959A"/>
<path d="M63.7142 53.1637L60.7785 50.4993L59.812 51.6451L62.7476 54.3096L63.7142 53.1637Z" stroke="#94959A"/>
<path d="M30.046 45.4405L33.098 47.8426L33.9853 46.6297L30.9333 44.2276L30.046 45.4405Z" stroke="#94959A"/>
<path d="M27.3857 51.5833L31.3314 51.8181L31.4155 50.298L27.4697 50.0633L27.3857 51.5833Z" stroke="#94959A"/>
<path fill-rule="evenodd" clip-rule="evenodd" d="M28.9652 40.1325C27.6058 40.0186 26.5314 39.9536 25.738 39.9364C25.0844 39.9232 24.4094 39.8104 23.9669 39.3882C23.7186 39.1512 23.5707 38.8417 23.5393 38.4933C23.5098 38.1666 23.586 37.8503 23.6995 37.5685L23.7016 37.5633C26.4648 30.8447 31.4737 26.5925 38.6454 24.8271C46.0342 22.9766 52.8745 24.2316 59.1138 28.5891C65.7799 33.1996 69.0866 39.7351 68.9983 48.1096L68.9983 48.1102C68.9479 52.5348 67.9084 56.6258 65.8766 60.3696L65.872 60.378C65.6036 60.8582 65.2857 61.2811 64.8921 61.5363C64.547 61.76 64.1594 61.8416 63.773 61.7507C63.3419 61.8508 62.9083 61.7225 62.5477 61.5365C61.0361 60.784 59.5004 60.0879 57.9404 59.4482L57.94 59.4481L56.9179 59.0315C51.7608 57.0025 46.4482 55.7629 40.9782 55.312C36.7411 54.9633 32.5911 55.2105 28.5262 56.052C26.3007 56.8055 24.6894 57.4075 23.6759 57.8597L23.6671 57.8636L23.6611 57.8662C23.0935 58.1043 22.459 58.2703 21.9107 58.068C21.6029 57.9545 21.3576 57.7371 21.201 57.4405C21.0542 57.1624 21.0049 56.8534 21.0008 56.5626L21.0007 56.5574C20.9505 49.8743 23.6278 44.3828 28.9652 40.1325ZM58.2953 29.853C52.4014 25.7361 45.9834 24.5552 38.9886 26.3075L38.9857 26.3082C32.2395 27.9685 27.6228 31.9116 25.0529 38.1579C25.0285 38.2187 25.0155 38.2638 25.0086 38.2952C25.0371 38.3085 25.0802 38.3253 25.1426 38.3421C25.284 38.3802 25.4876 38.4085 25.767 38.4141L25.768 38.4142C26.9699 38.4401 28.7465 38.5692 31.086 38.7979L31.0874 38.798L31.4886 38.8358C31.517 38.8385 31.5452 38.8429 31.5731 38.849C33.0525 39.1714 34.5192 39.5711 35.9732 40.048C36.8797 40.3443 37.7857 40.6726 38.6914 41.0328L38.6938 41.0338L38.9823 41.146L38.9895 41.1488C40.9136 41.9214 42.7999 42.8225 44.6481 43.8518C49.5354 46.5471 54.0028 49.8462 58.049 53.7481L58.0518 53.7508C58.4582 54.1468 58.8584 54.5428 59.2526 54.9389L59.2609 54.9473L60.1073 55.8253C61.4031 57.1822 62.6557 58.5839 63.865 60.0303C63.9608 60.1451 64.0373 60.2161 64.0923 60.258C64.0945 60.2569 64.0968 60.2556 64.0993 60.2542L64.1019 60.2527C64.1056 60.2506 64.1097 60.248 64.1142 60.2451C64.2095 60.1833 64.38 60.0109 64.5998 59.6186C66.5051 56.1061 67.483 52.2684 67.5305 48.0923C67.6133 40.2271 64.5477 34.1767 58.2981 29.855L58.2953 29.853ZM64.0745 60.2658C64.0738 60.266 64.0741 60.2658 64.0753 60.2656L64.0745 60.2658ZM61.1932 59.2116C60.4973 58.4258 59.7878 57.6542 59.0645 56.8968L58.2271 56.0282C57.8402 55.6395 57.4473 55.2507 57.0483 54.8619C53.0956 51.0505 48.7326 47.8286 43.9578 45.1954L43.9551 45.194C42.1599 44.1941 40.3293 43.3196 38.4633 42.5702L38.1793 42.4597L39.0616 44.0387L37.7917 44.8022L36.0417 41.6702C35.8717 41.6123 35.7017 41.5556 35.5317 41.5L35.531 41.4998C34.1364 41.0424 32.7305 40.6585 31.313 40.3481L31.2053 40.3379C30.8169 40.6036 30.4321 40.8871 30.051 41.1888L30.0472 41.1918C24.9251 45.192 22.4223 50.2917 22.4684 56.5426C22.4691 56.5808 22.4713 56.6115 22.4741 56.6357C22.4972 56.6346 22.5262 56.6319 22.562 56.6264C22.6901 56.6065 22.8683 56.5559 23.1036 56.4577C24.188 55.9743 25.8631 55.3513 28.1122 54.5906C28.1395 54.5814 28.1673 54.5738 28.1954 54.5679C32.4102 53.691 36.7105 53.4335 41.0944 53.7942C46.705 54.2567 52.1551 55.5288 57.4427 57.6096L57.4507 57.6128L58.4797 58.0321C59.3923 58.4064 60.2968 58.7995 61.1932 59.2116Z" stroke="#94959A"/>
</svg>
