<svg width="82" height="82" viewBox="0 0 82 82" fill="none" xmlns="http://www.w3.org/2000/svg">
<circle cx="41" cy="41" r="40" stroke="#EAEAEB" stroke-width="2"/>
<path d="M61.7493 50.9501C63.1219 54.5734 59.7039 54.453 57.8233 53.9399C37.9246 48.3122 29.1577 52.8535 25.2722 53.9526C21.3868 55.0516 23.7771 53.8417 21.501 53.399C19.68 53.0447 20.1525 51.3472 20.6163 50.5427C21.4924 50.1148 23.0342 48.7817 22.1924 46.8721C21.14 44.4851 22.1962 43.0102 23.1618 42.0851C24.1274 41.1599 25.4148 39.9264 25.4485 38.3509C25.4822 36.7753 27.1754 34.9988 28.6671 35.2671C30.1589 35.5355 30.2292 35.9311 31.4497 34.1444C32.6702 32.3578 33.3409 30.4806 36.083 31.2486C38.2767 31.863 38.7714 32.068 38.7446 32.0937C39.423 31.0836 41.5267 29.5208 44.5141 31.3502C48.2483 33.637 44.9699 32.1481 48.6877 31.5184C52.4055 30.8886 51.4833 33.4698 53.0049 36.0244C54.5266 38.5791 55.3751 35.7599 56.9839 37.9223C58.271 39.6523 57.6718 41.3787 57.2113 42.0256C58.8439 41.8504 61.8389 42.3453 60.7576 45.727C59.4061 49.9541 60.0335 46.4209 61.7493 50.9501Z" fill="#282A35" stroke="#EAEAEB" stroke-width="2"/>
<line x1="22.9318" y1="47.893" x2="25.2919" y2="48.1012" stroke="#EAEAEB" stroke-width="2"/>
<line x1="21.8861" y1="53.5151" x2="24.8173" y2="50.7514" stroke="#EAEAEB" stroke-width="2"/>
<line x1="25.772" y1="39.5858" x2="28.571" y2="41.3796" stroke="#EAEAEB" stroke-width="2"/>
<line x1="31.3086" y1="35.1904" x2="33.1311" y2="38.0741" stroke="#EAEAEB" stroke-width="2"/>
<line x1="39.4158" y1="32.1111" x2="40.0369" y2="36.1734" stroke="#EAEAEB" stroke-width="2"/>
<line x1="47.0723" y1="33.2489" x2="45.6502" y2="37.1046" stroke="#EAEAEB" stroke-width="2"/>
<line x1="53.892" y1="37.658" x2="50.9349" y2="40.5119" stroke="#EAEAEB" stroke-width="2"/>
<line x1="57.1012" y1="43.0143" x2="54.3119" y2="44.4521" stroke="#EAEAEB" stroke-width="2"/>
<line x1="59.5333" y1="49.3138" x2="56.5262" y2="49.88" stroke="#EAEAEB" stroke-width="2"/>
<line x1="61.5396" y1="53.8222" x2="56.2703" y2="49.611" stroke="#EAEAEB" stroke-width="2"/>
<path d="M25.0652 51.2076C25.9771 46.5126 30.2812 37.0392 40.2021 36.705C50.123 36.3708 55.4662 45.1607 56.8977 49.5975" stroke="#EAEAEB" stroke-width="2"/>
<path d="M61.2748 50.6959C61.5823 54.5583 58.3335 53.4892 56.6707 52.4719C39.1316 41.517 29.446 43.4326 25.4081 43.4042C21.3703 43.3758 24.0033 42.8807 21.941 41.8206C20.2911 40.9725 21.2183 39.4741 21.8881 38.8309C22.8489 38.6644 24.7013 37.8142 24.4255 35.7456C24.0808 33.1598 25.5065 32.0381 26.6918 31.419C27.8771 30.8 29.4575 29.9746 29.9294 28.4709C30.4013 26.9673 32.5228 25.7336 33.8804 26.4074C35.2381 27.0812 35.1953 27.4807 36.8657 26.1055C38.5361 24.7302 39.7038 23.1146 42.1229 24.617C44.0581 25.8189 44.476 26.1538 44.4431 26.171C45.3764 25.3903 47.8325 24.4763 50.1909 27.0664C53.1391 30.304 50.4061 27.9598 54.152 28.392C57.8979 28.8243 56.2923 31.0458 57.0409 33.9235C57.7896 36.8012 59.3908 34.3306 60.3326 36.856C61.086 38.8763 60.0291 40.367 59.4064 40.8598C61.0231 41.147 63.7611 42.4577 61.7795 45.4035C59.3025 49.0859 60.8905 45.8678 61.2748 50.6959Z" fill="#282A35" stroke="#EAEAEB" stroke-width="2"/>
<line x1="24.8506" y1="36.9336" x2="27.0589" y2="37.7918" stroke="#EAEAEB" stroke-width="2"/>
<line x1="22.2777" y1="42.0401" x2="25.8634" y2="40.2037" stroke="#EAEAEB" stroke-width="2"/>
<line x1="29.8946" y1="29.7483" x2="32.0821" y2="32.2516" stroke="#EAEAEB" stroke-width="2"/>
<line x1="36.4377" y1="27.0719" x2="37.3835" y2="30.3495" stroke="#EAEAEB" stroke-width="2"/>
<line x1="45.0816" y1="26.3752" x2="44.545" y2="30.4496" stroke="#EAEAEB" stroke-width="2"/>
<line x1="52.1171" y1="29.6048" x2="49.676" y2="32.9107" stroke="#EAEAEB" stroke-width="2"/>
<line x1="57.4381" y1="35.7402" x2="53.8024" y2="37.6559" stroke="#EAEAEB" stroke-width="2"/>
<line x1="59.0246" y1="41.7792" x2="55.9449" y2="42.3819" stroke="#EAEAEB" stroke-width="2"/>
<line x1="59.6027" y1="48.5071" x2="56.557" y2="48.2119" stroke="#EAEAEB" stroke-width="2"/>
<line x1="60.2712" y1="53.3963" x2="56.3857" y2="47.8825" stroke="#EAEAEB" stroke-width="2"/>
<path d="M25.9748 40.7107C28.1601 36.4565 34.9359 28.5597 44.5563 31.0061C54.1766 33.4525 56.8558 43.384 56.9929 48.044" stroke="#EAEAEB" stroke-width="2"/>
</svg>
