<svg width="82" height="82" viewBox="0 0 82 82" fill="none" xmlns="http://www.w3.org/2000/svg">
<circle cx="41" cy="41" r="40" stroke="#EAEAEB" stroke-width="2"/>
<path d="M24.5855 26.8378V54.9797M24.5855 26.8378L29.5245 28.7297H54.0824L58.6098 26.8378M24.5855 26.8378L20.7441 24L21.5672 28.7297L19.7837 30.1486M24.5855 54.9797L29.5245 53.0878H42.1756H54.0824L58.6098 54.9797M24.5855 54.9797L19.7837 57.6555L21.5672 53.7327L19.7837 53.0878L21.5672 50.25L20.0076 48.6562L21.5672 45.7718H19.7837L20.7441 42.9189L19 41.7365L20.7441 40.5798L19.7837 38.8987L20.7441 37.0068L19.7837 35.5879L20.7441 33.1957L19.7837 30.1486M58.6098 54.9797V26.8378M58.6098 54.9797L62.0396 59L61.3537 56.3987L62.0396 54.9797L61.3537 53.0878H62.5884L61.3537 50.25L62.5884 48.1216L62.0396 47.1757L63 44.3379L62.0396 42.9189L63 41.7365L62.0396 38.8987H63L62.0396 35.5879L63 34.4054L62.0396 32.0406L63 32.0405L62.0396 30.1486L63 28.7297L62.0396 26.8378L63 24L58.6098 26.8378M19.7837 30.1486L21.5672 31.0035" stroke="#EAEAEB" stroke-width="2" stroke-linecap="round" stroke-linejoin="round"/>
<circle cx="45" cy="39" r="1" fill="#282A35" stroke="#EAEAEB" stroke-width="2"/>
<path d="M37 44C38.1765 45.5092 41.4235 47.6222 45 44" stroke="#EAEAEB" stroke-width="2" stroke-linecap="round" stroke-linejoin="round"/>
<path d="M35.0184 39.8447C36.1208 39.428 38.3908 38.8872 38.6522 40.0584" stroke="#EAEAEB" stroke-linecap="round" stroke-linejoin="round"/>
</svg>
