<svg width="82" height="82" viewBox="0 0 82 82" fill="none" xmlns="http://www.w3.org/2000/svg">
<circle cx="41" cy="41" r="40" stroke="#EAEAEB" stroke-width="2"/>
<path d="M55.375 27H54.25L52.5625 23.7656C52.2109 23.0625 51.3672 22.5703 50.5938 22.5H30.8359C30.0625 22.5703 29.2188 23.0625 28.8672 23.7656L27.25 27H26.125C25.4922 27 25 27.5625 25 28.125V32.625C25 33.2578 25.4922 33.75 26.125 33.75H27.3906L29.2891 56.4609C29.3594 57.6562 30.3438 58.5 31.5391 58.5H49.8906C51.0859 58.5 52.0703 57.6562 52.1406 56.4609L54.0391 33.75H55.375C55.9375 33.75 56.5 33.2578 56.5 32.625V28.125C56.5 27.5625 55.9375 27 55.375 27ZM49.8906 56.25H31.5391L31.1875 51.75H50.2422L49.8906 56.25ZM50.4531 49.5H30.9766L30.2031 40.5H51.2266L50.4531 49.5ZM51.3672 38.25H30.0625L29.6406 33.75H51.7891L51.3672 38.25ZM54.25 31.5H27.25V29.25H28.5859L30.8359 24.75H50.5938L52.8438 29.25H54.25V31.5Z" fill="#EAEAEB"/>
</svg>
