<svg viewBox="0 0 500 479" xmlns="http://www.w3.org/2000/svg">
	<path
		d="M0 15C0 6.71573 6.71573 0 15 0H485C493.284 0 500 6.71573 500 15V35C500 43.2843 493.284 50 485 50H15C6.71571 50 0 43.2843 0 35V15Z"
		fill="currentColor"
	/>
	<path
		d="M0 175C0 166.716 6.71573 160 15 160H395V210H15C6.71572 210 0 203.284 0 195V175Z"
		fill="currentColor"
	/>
	<path
		d="M0 335C0 326.716 6.71573 320 15 320H110C118.284 320 125 326.716 125 335V355C125 363.284 118.284 370 110 370H15C6.71573 370 0 363.284 0 355V335Z"
		fill="currentColor"
	/>
	<path d="M295 320H395V370H295V320Z" fill="currentColor" />
	<path
		d="M185.223 352.909C180.049 348.906 180.049 341.094 185.223 337.091L308.881 241.423C315.453 236.338 325 241.023 325 249.332L325 440.668C325 448.977 315.453 453.662 308.881 448.577L185.223 352.909Z"
		fill="currentColor"
	/>
	<path
		fill-rule="evenodd"
		clip-rule="evenodd"
		d="M469.246 339.246C449.555 358.938 422.848 370 395 370L395 265L395 210L395 265V320C409.587 320 423.576 314.205 433.891 303.891C444.205 293.576 450 279.587 450 265C450 250.413 444.205 236.424 433.891 226.109C423.576 215.795 409.587 210 395 210L395 160C422.848 160 449.555 171.062 469.246 190.754C488.938 210.445 500 237.152 500 265C500 292.848 488.938 319.555 469.246 339.246Z"
		fill="currentColor"
	/>
</svg>
