<svg
	width="100"
	height="100"
	viewBox="0 0 100 100"
	fill="none"
	xmlns="http://www.w3.org/2000/svg"
>
	<g id="App icon/logo">
		<g id="aws">
			<path
				id="Vector"
				d="M32.8042 43.4327C32.8042 44.4205 32.9085 45.2214 33.091 45.8087C33.2996 46.396 33.5603 47.0367 33.9254 47.7308C34.0557 47.9444 34.1079 48.158 34.1079 48.3448C34.1079 48.6118 33.9514 48.8788 33.6125 49.1457L31.9699 50.267C31.7352 50.4271 31.5005 50.5072 31.2919 50.5072C31.0312 50.5072 30.7705 50.3737 30.5097 50.1335C30.1447 49.733 29.8318 49.3059 29.5711 48.8788C29.3104 48.4249 29.0496 47.9177 28.7628 47.3037C26.7291 49.7597 24.1739 50.9878 21.0972 50.9878C18.9071 50.9878 17.1602 50.3471 15.8826 49.0656C14.605 47.7842 13.9531 46.0756 13.9531 43.9399C13.9531 41.6707 14.7353 39.8287 16.3258 38.4405C17.9163 37.0523 20.0282 36.3582 22.7138 36.3582C23.6003 36.3582 24.5129 36.4383 25.4776 36.5717C26.4423 36.7052 27.4331 36.9188 28.476 37.1591V35.2102C28.476 33.1813 28.0588 31.7664 27.2506 30.9388C26.4162 30.1112 25.0083 29.7108 23.0006 29.7108C22.088 29.7108 21.1494 29.8176 20.1847 30.0578C19.22 30.2981 18.2813 30.5918 17.3687 30.9655C16.9516 31.1524 16.6387 31.2592 16.4562 31.3126C16.2737 31.366 16.1433 31.3927 16.039 31.3927C15.674 31.3927 15.4915 31.1257 15.4915 30.5651V29.257C15.4915 28.8298 15.5436 28.5095 15.674 28.3226C15.8043 28.1357 16.039 27.9488 16.404 27.762C17.3166 27.2814 18.4117 26.881 19.6893 26.5606C20.9669 26.2136 22.3227 26.0534 23.7567 26.0534C26.8595 26.0534 29.1279 26.7742 30.588 28.2158C32.022 29.6574 32.7521 31.8465 32.7521 34.7831V43.4327H32.8042ZM22.2184 47.4905C23.0788 47.4905 23.9653 47.3304 24.904 47.01C25.8426 46.6897 26.677 46.1023 27.3809 45.3014C27.7981 44.7942 28.111 44.2336 28.2674 43.5929C28.4239 42.9522 28.5282 42.178 28.5282 41.2703V40.1491C27.772 39.9622 26.9638 39.802 26.1294 39.6952C25.2951 39.5884 24.4868 39.535 23.6785 39.535C21.9316 39.535 20.654 39.8821 19.7936 40.6029C18.9331 41.3237 18.516 42.3382 18.516 43.673C18.516 44.9277 18.8289 45.8621 19.4807 46.5028C20.1065 47.1702 21.019 47.4905 22.2184 47.4905V47.4905ZM43.1553 50.3737C42.686 50.3737 42.3731 50.2937 42.1646 50.1068C41.956 49.9466 41.7735 49.5729 41.617 49.0656L35.4898 28.4294C35.3333 27.8954 35.2551 27.5484 35.2551 27.3615C35.2551 26.9344 35.4637 26.6941 35.8809 26.6941H38.4361C38.9315 26.6941 39.2704 26.7742 39.4529 26.9611C39.6615 27.1212 39.818 27.495 39.9744 28.0022L44.3547 45.6752L48.4222 28.0022C48.5525 27.4683 48.709 27.1212 48.9176 26.9611C49.1262 26.8009 49.4912 26.6941 49.9605 26.6941H52.0464C52.5418 26.6941 52.8807 26.7742 53.0893 26.9611C53.2979 27.1212 53.4804 27.495 53.5847 28.0022L57.7043 45.8888L62.215 28.0022C62.3715 27.4683 62.554 27.1212 62.7365 26.9611C62.9451 26.8009 63.284 26.6941 63.7533 26.6941H66.1782C66.5953 26.6941 66.83 26.9077 66.83 27.3615C66.83 27.495 66.8039 27.6285 66.7779 27.7887C66.7518 27.9488 66.6996 28.1624 66.5953 28.4561L60.3117 49.0923C60.1552 49.6262 59.9727 49.9733 59.7641 50.1335C59.5555 50.2937 59.2166 50.4004 58.7733 50.4004H56.531C56.0356 50.4004 55.6967 50.3204 55.4881 50.1335C55.2795 49.9466 55.097 49.5996 54.9927 49.0656L50.9513 31.8465L46.936 49.0389C46.8056 49.5729 46.6492 49.9199 46.4406 50.1068C46.232 50.2937 45.867 50.3737 45.3977 50.3737H43.1553ZM76.6597 51.0945C75.3039 51.0945 73.948 50.9344 72.6444 50.614C71.3407 50.2937 70.3238 49.9466 69.6459 49.5462C69.2288 49.3059 68.942 49.0389 68.8377 48.7987C68.7334 48.5584 68.6812 48.2914 68.6812 48.0512V46.6897C68.6812 46.129 68.8898 45.8621 69.2809 45.8621C69.4373 45.8621 69.5938 45.8888 69.7502 45.9422C69.9067 45.9956 70.1413 46.1023 70.4021 46.2091C71.2886 46.6096 72.2533 46.9299 73.2701 47.1435C74.3131 47.3571 75.3299 47.4638 76.3729 47.4638C78.0155 47.4638 79.2931 47.1702 80.1796 46.5829C81.0661 45.9955 81.5354 45.1413 81.5354 44.0467C81.5354 43.2992 81.3008 42.6852 80.8314 42.178C80.3621 41.6707 79.4756 41.2169 78.198 40.7898L74.4174 39.5884C72.514 38.9744 71.106 38.0667 70.2456 36.8654C69.3852 35.6908 68.942 34.3826 68.942 32.9944C68.942 31.8732 69.1766 30.8854 69.6459 30.0311C70.1153 29.1769 70.741 28.4294 71.5232 27.842C72.3054 27.228 73.1919 26.7742 74.2349 26.4538C75.2778 26.1335 76.3729 26 77.5201 26C78.0937 26 78.6934 26.0267 79.267 26.1068C79.8667 26.1869 80.4143 26.2937 80.9618 26.4004C81.4833 26.5339 81.9787 26.6674 82.448 26.8276C82.9173 26.9878 83.2823 27.1479 83.5431 27.3081C83.9081 27.5217 84.1688 27.7353 84.3253 27.9755C84.4817 28.1891 84.5599 28.4828 84.5599 28.8565V30.1112C84.5599 30.6719 84.3513 30.9655 83.9602 30.9655C83.7517 30.9655 83.4127 30.8587 82.9694 30.6452C81.4833 29.9511 79.8146 29.604 77.9634 29.604C76.4772 29.604 75.3039 29.8443 74.4956 30.3515C73.6873 30.8587 73.2701 31.6329 73.2701 32.7275C73.2701 33.475 73.5309 34.1157 74.0523 34.6229C74.5738 35.1301 75.5385 35.6374 76.9204 36.0912L80.6228 37.2925C82.5001 37.9066 83.8559 38.7608 84.6642 39.8554C85.4725 40.9499 85.8636 42.2047 85.8636 43.5929C85.8636 44.7408 85.6289 45.782 85.1857 46.6897C84.7164 47.5973 84.0906 48.3982 83.2823 49.0389C82.4741 49.7063 81.5093 50.1869 80.3882 50.5339C79.2149 50.9077 77.9894 51.0945 76.6597 51.0945V51.0945Z"
				fill="#252F3E"
			/>
			<g id="Group">
				<path
					id="Vector_2"
					fill-rule="evenodd"
					clip-rule="evenodd"
					d="M81.5878 64.0695C73.0097 70.5567 60.5466 74.0005 49.8304 74.0005C34.8121 74.0005 21.28 68.3142 11.0592 58.8637C10.2509 58.1162 10.981 57.1018 11.9457 57.6891C23.0008 64.2564 36.6372 68.2341 50.743 68.2341C60.2597 68.2341 70.7152 66.2052 80.3363 62.0406C81.7703 61.3732 82.9958 63.0017 81.5878 64.0695V64.0695Z"
					fill="#FF9900"
				/>
				<path
					id="Vector_3"
					fill-rule="evenodd"
					clip-rule="evenodd"
					d="M85.1598 59.9046C84.0647 58.463 77.9114 59.2105 75.1215 59.5576C74.2872 59.6644 74.1568 58.9169 74.9129 58.3562C79.8147 54.8323 87.8714 55.8468 88.8101 57.0214C89.7487 58.2228 88.5493 66.4719 83.9604 70.423C83.2564 71.037 82.5785 70.7166 82.8914 69.9158C83.9343 67.2728 86.2549 61.3195 85.1598 59.9046V59.9046Z"
					fill="#FF9900"
				/>
			</g>
		</g>
	</g>
</svg>
