<?xml version="1.0" encoding="utf-8"?>
<svg
	version="1.1"
	id="Layer_1"
	xmlns="http://www.w3.org/2000/svg"
	xmlns:xlink="http://www.w3.org/1999/xlink"
	x="0px"
	y="0px"
	viewBox="0 0 182 182"
	style="enable-background: new 0 0 182 182;"
	xml:space="preserve"
>
	<style type="text/css">
		.st0-aws {
			fill: #252f3e;
		}
		.st1-aws {
			fill-rule: evenodd;
			clip-rule: evenodd;
			fill: #ff9900;
		}
	</style>
	<g>
		<path
			class="st0-aws"
			d="M51.7,76.2c0,2.2,0.2,4,0.7,5.3c0.5,1.3,1.1,2.8,1.9,4.3c0.3,0.5,0.4,1,0.4,1.4c0,0.6-0.4,1.2-1.1,1.8
		l-3.8,2.5c-0.5,0.4-1.1,0.5-1.6,0.5c-0.6,0-1.2-0.3-1.8-0.8c-0.8-0.9-1.6-1.9-2.2-2.8c-0.6-1-1.2-2.2-1.9-3.5
		c-4.7,5.5-10.6,8.3-17.6,8.3c-5,0-9.1-1.4-12-4.3s-4.4-6.7-4.4-11.5c0-5.1,1.8-9.2,5.5-12.4c3.7-3.1,8.5-4.7,14.7-4.7
		c2,0,4.1,0.2,6.4,0.5s4.5,0.8,6.9,1.3v-4.4c0-4.6-1-7.7-2.8-9.6c-1.9-1.9-5.2-2.8-9.8-2.8c-2.1,0-4.3,0.2-6.5,0.8s-4.4,1.2-6.5,2
		c-1,0.4-1.7,0.7-2.1,0.8s-0.7,0.2-1,0.2c-0.8,0-1.3-0.6-1.3-1.9v-2.9c0-1,0.1-1.7,0.4-2.1s0.8-0.8,1.7-1.3c2.1-1.1,4.6-2,7.6-2.7
		c2.9-0.8,6.1-1.1,9.4-1.1c7.1,0,12.4,1.6,15.7,4.9c3.3,3.2,5,8.2,5,14.8v19.4H51.7z M27.3,85.4c2,0,4-0.4,6.2-1.1s4.1-2,5.7-3.8
		c1-1.1,1.7-2.4,2-3.8s0.6-3.2,0.6-5.2v-2.5c-1.7-0.4-3.6-0.8-5.5-1s-3.8-0.4-5.6-0.4c-4,0-7,0.8-8.9,2.4c-2,1.6-2.9,3.9-2.9,6.9
		c0,2.8,0.7,4.9,2.2,6.4C22.4,84.6,24.5,85.4,27.3,85.4z M75.5,91.8c-1.1,0-1.8-0.2-2.3-0.6c-0.5-0.4-0.9-1.2-1.3-2.3L57.8,42.5
		c-0.4-1.2-0.5-2-0.5-2.4c0-1,0.5-1.5,1.4-1.5h5.9c1.1,0,1.9,0.2,2.3,0.6c0.5,0.4,0.8,1.2,1.2,2.3l10.1,39.7l9.4-39.7
		c0.3-1.2,0.7-2,1.1-2.3c0.5-0.4,1.3-0.6,2.4-0.6h4.8c1.1,0,1.9,0.2,2.4,0.6c0.5,0.4,0.9,1.2,1.1,2.3l9.5,40.2l10.4-40.2
		c0.4-1.2,0.8-2,1.2-2.3c0.5-0.4,1.3-0.6,2.3-0.6h5.6c1,0,1.5,0.5,1.5,1.5c0,0.3-0.1,0.6-0.1,1c-0.1,0.4-0.2,0.8-0.4,1.5L114.9,89
		c-0.4,1.2-0.8,2-1.3,2.3c-0.5,0.4-1.3,0.6-2.3,0.6h-5.2c-1.1,0-1.9-0.2-2.4-0.6c-0.5-0.4-0.9-1.2-1.1-2.4l-9.3-38.7l-9.2,38.6
		c-0.3,1.2-0.7,2-1.1,2.4c-0.5,0.4-1.3,0.6-2.4,0.6H75.5z M152.5,93.5c-3.1,0-6.2-0.4-9.2-1.1c-3-0.7-5.3-1.5-6.9-2.4
		c-1-0.5-1.6-1.1-1.9-1.7c-0.2-0.5-0.4-1.1-0.4-1.7v-3.1c0-1.3,0.5-1.9,1.4-1.9c0.4,0,0.7,0.1,1.1,0.2c0.4,0.1,0.9,0.4,1.5,0.6
		c2,0.9,4.3,1.6,6.6,2.1c2.4,0.5,4.7,0.7,7.1,0.7c3.8,0,6.7-0.7,8.8-2c2-1.3,3.1-3.2,3.1-5.7c0-1.7-0.5-3.1-1.6-4.2
		c-1.1-1.1-3.1-2.2-6.1-3.1l-8.7-2.7c-4.4-1.4-7.6-3.4-9.6-6.1c-2-2.6-3-5.6-3-8.7c0-2.5,0.5-4.7,1.6-6.7c1.1-1.9,2.5-3.6,4.3-4.9
		c1.8-1.4,3.8-2.4,6.2-3.1c2.4-0.7,4.9-1,7.6-1c1.3,0,2.7,0.1,4,0.2c1.4,0.2,2.6,0.4,3.9,0.7c1.2,0.3,2.3,0.6,3.4,1
		c1.1,0.4,1.9,0.7,2.5,1.1c0.8,0.5,1.4,1,1.8,1.5c0.4,0.5,0.5,1.1,0.5,2v2.8c0,1.3-0.5,1.9-1.4,1.9c-0.5,0-1.3-0.2-2.3-0.7
		c-3.4-1.6-7.3-2.3-11.5-2.3c-3.4,0-6.1,0.5-8,1.7c-1.9,1.1-2.8,2.9-2.8,5.3c0,1.7,0.6,3.1,1.8,4.3c1.2,1.1,3.4,2.3,6.6,3.3l8.5,2.7
		c4.3,1.4,7.4,3.3,9.3,5.8c1.9,2.5,2.8,5.3,2.8,8.4c0,2.6-0.5,4.9-1.6,7c-1.1,2-2.5,3.8-4.4,5.3c-1.9,1.5-4.1,2.6-6.7,3.4
		C158.4,93,155.6,93.5,152.5,93.5z"
		/>
		<g>
			<path
				class="st1-aws"
				d="M163.9,122.6c-19.7,14.6-48.4,22.3-73.1,22.3c-34.5,0-65.7-12.8-89.2-34c-1.9-1.7-0.2-4,2-2.6
			C29.1,123,60.5,132,92.9,132c21.9,0,45.9-4.6,68.1-13.9C164.3,116.6,167.1,120.2,163.9,122.6z"
			/>
			<path
				class="st1-aws"
				d="M172.1,113.3c-2.5-3.2-16.7-1.6-23.1-0.8c-1.9,0.2-2.2-1.4-0.5-2.7c11.3-7.9,29.8-5.6,32-3
			c2.2,2.7-0.6,21.2-11.2,30.1c-1.6,1.4-3.2,0.7-2.5-1.1C169.3,129.8,174.6,116.4,172.1,113.3z"
			/>
		</g>
	</g>
</svg>
