<svg viewBox="0 0 100 100" fill="none" xmlns="http://www.w3.org/2000/svg">
	<g id="App icon/logo">
		<g id="github">
			<path
				id="Vector"
				d="M50 10C27.8996 10 10 28.1718 10 50.6083C10 69.6924 22.8987 85.5314 40.3013 89.9965C40.1004 89.4885 40.0017 88.7766 40.0017 88.0681V81.1629H35.0009C32.3013 81.1629 29.7991 79.9464 28.6996 77.7104C27.3991 75.2739 27.1983 71.5172 23.8996 69.1809C22.8987 68.3688 23.6987 67.5566 24.7983 67.6568C26.8987 68.2651 28.5974 69.689 30.1974 71.8179C31.7974 73.9502 32.4987 74.4583 35.4979 74.4583C36.897 74.4583 39.0962 74.358 41.0979 74.0505C42.1974 71.2061 44.097 68.6694 46.3983 67.4529C32.9991 65.8286 26.5991 59.1273 26.5991 49.9896C26.5991 46.029 28.2979 42.2723 31.0996 39.0237C30.2009 35.8752 28.9991 29.3779 31.5013 26.8412C37.503 26.8412 41.1013 30.8018 42 31.8144C44.9991 30.7983 48.3013 30.1901 51.6987 30.1901C55.1983 30.1901 58.3983 30.7983 61.3974 31.8144C62.2962 30.7983 65.8979 26.8412 71.8962 26.8412C74.2962 29.2777 73.1966 35.8752 72.1957 39.0237C74.9974 42.1721 76.5974 46.029 76.5974 49.9896C76.5974 59.1273 70.2962 65.8286 56.9991 67.249C60.6996 69.1775 63.3004 74.6587 63.3004 78.7195V87.9679C63.3004 88.272 63.2017 88.5761 63.2017 88.8802C78.8 83.399 90 68.3757 90 50.6083C90 28.1718 72.1004 10 50 10Z"
				fill="black"
			/>
		</g>
	</g>
</svg>
