<?xml version="1.0" encoding="utf-8"?>
<!-- Generator: Adobe Illustrator 24.0.1, SVG Export Plug-In . SVG Version: 6.00 Build 0)  -->
<svg version="1.1" id="Layer_1" xmlns="http://www.w3.org/2000/svg" xmlns:xlink="http://www.w3.org/1999/xlink" x="0px" y="0px"
	 viewBox="0 0 131.2 105.5" style="enable-background:new 0 0 131.2 105.5;" xml:space="preserve">
<style type="text/css">
	.st0-gcp{fill:#EA4335;}
	.st1-gcp{fill:#4285F4;}
	.st2-gcp{fill:#34A853;}
	.st3-gcp{fill:#FBBC05;}
</style>
<g transform="translate(.011 -.009)">
	<path class="st0-gcp" d="M83,33.8l9.2-9.2l0.6-3.9C76.1,5.5,49.5,7.3,34.5,24.3c-4.2,4.8-7.3,10.6-8.9,16.8l3.3-0.5l18.3-3l1.4-1.4
		c8.1-9,21.9-10.1,31.4-2.5L83,33.8z"/>
	<path class="st1-gcp" d="M105.2,40.8c-2.1-7.8-6.4-14.7-12.5-20.1L79.9,33.6c5.4,4.4,8.5,11.1,8.4,18.1V54c6.3,0,11.4,5.1,11.4,11.4
		c0,6.3-5.1,11.4-11.4,11.4c0,0,0,0,0,0H65.4l-2.3,2.4V93l2.3,2.2h22.9c16.4,0.2,29.8-13,30-29.4C118.4,55.8,113.5,46.4,105.2,40.8"
		/>
	<path class="st2-gcp" d="M42.5,95.1h22.9V76.8H42.5c-1.6,0-3.2-0.4-4.7-1l-3.3,1l-9.2,9.2l-0.8,3.1C29.7,93,36,95.1,42.5,95.1"/>
	<path class="st3-gcp" d="M42.5,35.7c-16.5,0.1-29.7,13.5-29.6,30c0.1,9.2,4.3,17.8,11.6,23.4l13.3-13.3c-5.8-2.6-8.3-9.4-5.7-15.2
		c2.6-5.8,9.4-8.3,15.2-5.7c2.5,1.1,4.6,3.2,5.7,5.7l13.3-13.3C60.6,39.9,51.8,35.6,42.5,35.7"/>
</g>
</svg>
