<svg viewBox="0 0 100 100" fill="none" xmlns="http://www.w3.org/2000/svg">
	<g id="cards">
		<g id="App icon/logo">
			<g id="GCP" clip-path="url(#clip0)">
				<g id="Group">
					<path
						id="Vector"
						d="M60.763 35.6781H63.2042L70.159 28.743L70.501 25.8005C57.5606 14.4115 37.8062 15.6387 26.3848 28.5424C23.2092 32.127 20.9055 36.3903 19.6514 41.0047C20.426 40.6871 21.2844 40.6369 22.0926 40.8576L35.9988 38.5705C35.9988 38.5705 36.7063 37.4035 37.0718 37.477C43.2587 30.7025 53.6707 29.9134 60.8133 35.6781H60.763Z"
						fill="#EA4335"
					/>
					<path
						id="Vector_2"
						d="M80.0643 41.005C78.4648 35.1367 75.1853 29.8602 70.6214 25.8242L60.8633 35.5547C64.9845 38.9118 67.3318 43.971 67.2312 49.2776V51.0063C72.0298 51.0063 75.9163 54.8851 75.9163 59.6668C75.9163 64.4517 72.0264 68.3272 67.2312 68.3272H49.8577L48.124 70.0793V80.4685L49.8577 82.1972H67.2312C77.1906 82.2742 86.0265 75.8373 88.9842 66.3543C91.9351 56.868 88.3135 46.5691 80.0643 41.005Z"
						fill="#4285F4"
					/>
					<path
						id="Vector_3"
						d="M32.4606 82.0999H49.8341V68.2332H32.4606C31.2232 68.2332 29.9993 67.969 28.8726 67.4541L26.4314 68.2065L19.4296 75.1415L18.8193 77.5758C22.7461 80.5317 27.538 82.12 32.4606 82.0999Z"
						fill="#34A853"
					/>
					<path
						id="Vector_4"
						d="M32.4608 37.1124C22.81 37.1693 14.2624 43.3319 11.1841 52.4504C8.10573 61.5689 11.174 71.6338 18.8229 77.4988L28.8996 67.4507C24.5269 65.4812 22.5853 60.3518 24.5604 55.9915C26.5355 51.6312 31.6795 49.6951 36.0522 51.6646C37.977 52.534 39.5196 54.0722 40.3914 55.9915L50.4681 45.9434C46.1793 40.3559 39.5162 37.089 32.4608 37.1124Z"
						fill="#FBBC05"
					/>
				</g>
			</g>
		</g>
	</g>
	<defs>
		<clipPath id="clip0">
			<rect
				width="80"
				height="64.1975"
				fill="white"
				transform="translate(10 18)"
			/>
		</clipPath>
	</defs>
</svg>
