<svg viewBox="0 0 100 100" fill="none" xmlns="http://www.w3.org/2000/svg">
	<g id="App icon/logo">
		<g id="salesforce" clip-path="url(#clip0)">
			<path
				id="Vector"
				d="M43.2912 28.1797C45.8713 25.4612 49.4633 23.7751 53.4359 23.7751C58.7169 23.7751 63.3242 26.7529 65.7779 31.1735C67.9101 30.2102 70.2702 29.6742 72.7533 29.6742C82.278 29.6742 90 37.551 90 47.2669C90 56.9839 82.278 64.8606 72.7533 64.8606C71.6125 64.8613 70.4744 64.7466 69.3562 64.5183C67.1955 68.4157 63.0781 71.049 58.3522 71.049C56.3738 71.049 54.5026 70.587 52.8365 69.7653C50.6462 74.9753 45.5431 78.6283 39.5954 78.6283C33.4017 78.6283 28.1231 74.6653 26.0969 69.1072C25.2115 69.2974 24.2941 69.3965 23.3527 69.3965C15.9784 69.3966 10 63.2888 10 55.7532C10 50.7034 12.686 46.2942 16.6769 43.9353C15.8553 42.0235 15.3983 39.9134 15.3983 37.695C15.3983 29.0289 22.3556 22.0039 30.9368 22.0039C35.9749 22.0039 40.4525 24.4263 43.2912 28.1797Z"
				fill="#00A1E0"
			/>
			<path
				id="Vector_2"
				d="M21.5874 51.366C21.5373 51.4986 21.6057 51.5263 21.6216 51.5493C21.772 51.6599 21.9248 51.7395 22.0786 51.8282C22.8946 52.266 23.665 52.3939 24.4707 52.3939C26.1117 52.3939 27.1305 51.5112 27.1305 50.0903V50.0627C27.1305 48.7489 25.9807 48.2718 24.9014 47.9272L24.7613 47.8811C23.9476 47.6138 23.2456 47.3834 23.2456 46.8417V46.8129C23.2456 46.3497 23.6559 46.0085 24.2918 46.0085C24.9983 46.0085 25.8371 46.2459 26.3772 46.5478C26.3772 46.5478 26.5356 46.6516 26.5938 46.496C26.6256 46.413 26.8992 45.6685 26.9277 45.5879C26.9585 45.5003 26.9038 45.4357 26.8479 45.4011C26.2314 45.022 25.379 44.7627 24.497 44.7627L24.3329 44.7638C22.8309 44.7638 21.7825 45.6812 21.7825 46.996V47.0237C21.7825 48.41 22.9392 48.8595 24.023 49.1729L24.1973 49.2271C24.987 49.4726 25.6674 49.6834 25.6674 50.2458V50.2735C25.6674 50.7875 25.2253 51.1701 24.5119 51.1701C24.2349 51.1701 23.3517 51.1643 22.3979 50.5546C22.2827 50.4866 22.2156 50.4371 22.1267 50.3829C22.08 50.353 21.9626 50.3011 21.9113 50.4578L21.5874 51.366V51.366ZM45.6113 51.366C45.5611 51.4986 45.6295 51.5263 45.6455 51.5493C45.7959 51.6599 45.9486 51.7395 46.1024 51.8282C46.9183 52.266 47.6889 52.3939 48.4945 52.3939C50.1355 52.3939 51.1543 51.5112 51.1543 50.0903V50.0627C51.1543 48.7489 50.0045 48.2718 48.9252 47.9272L48.7851 47.8811C47.9714 47.6138 47.2693 47.3834 47.2693 46.8417V46.8129C47.2693 46.3497 47.6796 46.0085 48.3155 46.0085C49.022 46.0085 49.8608 46.2459 50.401 46.5478C50.401 46.5478 50.5594 46.6516 50.6175 46.496C50.6494 46.413 50.9229 45.6685 50.9514 45.5879C50.9822 45.5003 50.9275 45.4357 50.8717 45.4011C50.2551 45.022 49.4027 44.7627 48.5207 44.7627L48.3565 44.7638C46.8545 44.7638 45.8061 45.6812 45.8061 46.996V47.0237C45.8061 48.41 46.9628 48.8595 48.0466 49.1729L48.2209 49.2271C49.0107 49.4726 49.6922 49.6834 49.6922 50.2458V50.2735C49.6922 50.7875 49.2489 51.1701 48.5355 51.1701C48.2586 51.1701 47.3754 51.1643 46.4216 50.5546C46.3064 50.4866 46.2381 50.4394 46.1516 50.3829C46.1219 50.3633 45.9828 50.3092 45.935 50.4578L45.6113 51.366V51.366ZM62.0118 48.5828C62.0118 49.386 61.8636 50.0186 61.5719 50.4658C61.2835 50.9083 60.8471 51.1238 60.2386 51.1238C59.629 51.1238 59.1948 50.9095 58.911 50.4658C58.6237 50.0198 58.478 49.386 58.478 48.5828C58.478 47.7807 58.6237 47.1492 58.911 46.7066C59.1948 46.2688 59.629 46.0555 60.2386 46.0555C60.8472 46.0555 61.2836 46.2688 61.5731 46.7066C61.8637 47.1491 62.0118 47.7807 62.0118 48.5828V48.5828ZM63.3816 47.0939C63.2471 46.634 63.0374 46.2284 62.7583 45.8907C62.479 45.5519 62.1258 45.28 61.7063 45.0818C61.2881 44.8847 60.7936 44.7845 60.2386 44.7845C59.6825 44.7845 59.1879 44.8847 58.7696 45.0818C58.3502 45.28 57.997 45.552 57.7167 45.8907C57.4386 46.2296 57.2289 46.6352 57.0933 47.0939C56.96 47.5513 56.8927 48.0515 56.8927 48.5828C56.8927 49.1141 56.96 49.6153 57.0933 50.0717C57.2289 50.5303 57.4375 50.936 57.7179 51.2748C57.997 51.6136 58.3515 51.8844 58.7697 52.0768C59.189 52.2693 59.6825 52.3672 60.2387 52.3672C60.7937 52.3672 61.2871 52.2693 61.7064 52.0768C62.1247 51.8844 62.479 51.6135 62.7583 51.2748C63.0375 50.9371 63.2471 50.5315 63.3817 50.0717C63.5162 49.6142 63.5834 49.1129 63.5834 48.5828C63.5834 48.0527 63.5161 47.5513 63.3816 47.0939V47.0939ZM74.6302 50.9093C74.5846 50.7745 74.4559 50.8252 74.4559 50.8252C74.2565 50.9024 74.0444 50.9739 73.8188 51.0096C73.5897 51.0452 73.3379 51.0637 73.0678 51.0637C72.4046 51.0637 71.8781 50.8644 71.5009 50.4702C71.1225 50.0761 70.9106 49.4389 70.9128 48.5768C70.9151 47.7921 71.102 47.202 71.4382 46.7526C71.7722 46.3055 72.2804 46.0761 72.9585 46.0761C73.5237 46.0761 73.9545 46.1418 74.4057 46.2858C74.4057 46.2858 74.5139 46.3331 74.5652 46.1902C74.6848 45.8537 74.7737 45.6128 74.9014 45.2429C74.9379 45.138 74.849 45.0931 74.817 45.0804C74.6393 45.0101 74.2199 44.8961 73.9031 44.8476C73.6068 44.8016 73.2604 44.7774 72.8752 44.7774C72.2996 44.7774 71.7868 44.8765 71.3481 45.0747C70.9105 45.2717 70.539 45.5437 70.245 45.8826C69.951 46.2214 69.7276 46.6269 69.5784 47.0856C69.4302 47.5431 69.355 48.0455 69.355 48.5768C69.355 49.7258 69.6616 50.6545 70.2667 51.3345C70.8729 52.0168 71.7835 52.3636 72.971 52.3636C73.673 52.3636 74.3933 52.2196 74.9107 52.0133C74.9107 52.0133 75.0098 51.9649 74.9665 51.8486L74.6302 50.9093V50.9093ZM77.0269 47.8133C77.0919 47.3673 77.2138 46.9962 77.4019 46.707C77.6857 46.268 78.1187 46.0271 78.7273 46.0271C79.3359 46.0271 79.7381 46.2691 80.0264 46.707C80.2179 46.9962 80.3011 47.3835 80.3342 47.8133H77.0269ZM81.6389 46.8325C81.5227 46.3889 81.2343 45.9405 81.0452 45.7354C80.7466 45.4105 80.4549 45.1835 80.1654 45.0567C79.7871 44.893 79.3335 44.7847 78.8367 44.7847C78.2578 44.7847 77.7324 44.8827 77.3062 45.0855C76.8789 45.2883 76.5199 45.565 76.2384 45.9095C75.9568 46.2529 75.7449 46.662 75.6104 47.1264C75.4748 47.5886 75.4064 48.0922 75.4064 48.6233C75.4064 49.1639 75.4771 49.6675 75.6173 50.1203C75.7586 50.5767 75.9842 50.9789 76.2896 51.3119C76.5939 51.6473 76.9859 51.9101 77.4554 52.0932C77.9216 52.2753 78.488 52.3698 79.1386 52.3686C80.4777 52.364 81.1831 52.0621 81.4737 51.8995C81.525 51.8708 81.574 51.8201 81.5124 51.6749L81.2093 50.8163C81.1638 50.6884 81.0349 50.7356 81.0349 50.7356C80.7032 50.8601 80.2316 51.0837 79.1318 51.0814C78.4127 51.0803 77.8793 50.8659 77.5454 50.5305C77.2024 50.1871 77.0349 49.6823 77.0052 48.9702L81.6423 48.9748C81.6423 48.9748 81.7641 48.9725 81.7768 48.8526C81.7814 48.8021 81.9364 47.8893 81.6389 46.8325V46.8325ZM39.891 47.8133C39.9571 47.3673 40.0779 46.9962 40.2659 46.707C40.5497 46.268 40.9827 46.0271 41.5913 46.0271C42.1998 46.0271 42.6021 46.2691 42.8915 46.707C43.0818 46.9962 43.165 47.3835 43.1981 47.8133H39.891V47.8133ZM44.5018 46.8325C44.3856 46.3889 44.0984 45.9405 43.9093 45.7354C43.6106 45.4105 43.3189 45.1835 43.0295 45.0567C42.6511 44.893 42.1976 44.7847 41.7007 44.7847C41.1229 44.7847 40.5964 44.8827 40.1702 45.0855C39.7429 45.2883 39.3839 45.565 39.1024 45.9095C38.821 46.2529 38.609 46.662 38.4745 47.1264C38.3401 47.5886 38.2706 48.0922 38.2706 48.6233C38.2706 49.1639 38.3412 49.6675 38.4814 50.1203C38.6228 50.5767 38.8484 50.9789 39.1538 51.3119C39.4581 51.6473 39.8501 51.9101 40.3196 52.0932C40.7857 52.2753 41.3521 52.3698 42.0028 52.3686C43.3418 52.364 44.0472 52.0621 44.3378 51.8995C44.3892 51.8708 44.4381 51.8201 44.3766 51.6749L44.0746 50.8163C44.0278 50.6884 43.8992 50.7356 43.8992 50.7356C43.5675 50.8601 43.0968 51.0837 41.9949 51.0814C41.2769 51.0803 40.7436 50.8659 40.4097 50.5305C40.0666 50.1871 39.8992 49.6823 39.8695 48.9702L44.5065 48.9748C44.5065 48.9748 44.6284 48.9725 44.6409 48.8526C44.6453 48.8021 44.8003 47.8893 44.5018 46.8325V46.8325ZM29.8681 50.8836C29.6869 50.7372 29.6618 50.7004 29.6003 50.6059C29.5091 50.4618 29.4624 50.2567 29.4624 49.9963C29.4624 49.5837 29.5969 49.2875 29.8761 49.0882C29.8727 49.0894 30.275 48.7367 31.2208 48.7493C31.8851 48.7586 32.4789 48.8577 32.4789 48.8577V50.9896H32.48C32.48 50.9896 31.8908 51.1175 31.2276 51.1578C30.284 51.2155 29.8646 50.8825 29.8681 50.8836V50.8836ZM31.7131 47.5889C31.525 47.575 31.2811 47.5669 30.9894 47.5669C30.5917 47.5669 30.2076 47.6176 29.8475 47.7156C29.4851 47.8135 29.1592 47.9669 28.8789 48.1696C28.5989 48.3717 28.3688 48.6363 28.2065 48.9429C28.0424 49.2517 27.9592 49.6159 27.9592 50.0239C27.9592 50.4387 28.0298 50.7994 28.1712 51.0945C28.3125 51.3907 28.5165 51.6372 28.7763 51.8275C29.0338 52.0176 29.3518 52.157 29.721 52.2411C30.0845 52.3252 30.497 52.3678 30.9484 52.3678C31.4236 52.3678 31.8976 52.3287 32.3569 52.2491C32.8116 52.1707 33.37 52.0566 33.5249 52.021C33.6336 51.9945 33.7419 51.9665 33.8497 51.9369C33.9649 51.9081 33.9558 51.7836 33.9558 51.7836L33.9535 47.4955C33.9535 46.5551 33.705 45.8579 33.2162 45.4258C32.7295 44.9948 32.0127 44.7769 31.0863 44.7769C30.7386 44.7769 30.1791 44.8254 29.8441 44.8933C29.8441 44.8933 28.831 45.0916 28.4138 45.4211C28.4138 45.4211 28.3227 45.4788 28.3728 45.6079L28.7011 46.4999C28.7421 46.6151 28.8527 46.5759 28.8527 46.5759C28.8527 46.5759 28.888 46.5621 28.9291 46.5379C29.8214 46.047 30.9496 46.0619 30.9496 46.0619C31.451 46.0619 31.8362 46.1633 32.096 46.365C32.349 46.5609 32.4777 46.857 32.4777 47.4816V47.6798C32.0789 47.6223 31.7131 47.5889 31.7131 47.5889V47.5889ZM69.1128 45.1728C69.148 45.0667 69.074 45.016 69.0432 45.0045C68.9646 44.9734 68.5703 44.8893 68.266 44.8697C67.6837 44.834 67.3601 44.9331 67.0706 45.0644C66.7834 45.1958 66.4644 45.4078 66.2865 45.6487V45.0783C66.2865 44.9988 66.2307 44.9353 66.1532 44.9353H64.9645C64.8871 44.9353 64.8313 44.9987 64.8313 45.0783V52.0722C64.8313 52.1506 64.8951 52.2151 64.9726 52.2151H66.1908C66.2281 52.2149 66.2638 52.1997 66.2901 52.1729C66.3164 52.1461 66.3311 52.1099 66.331 52.0722V48.5781C66.331 48.1091 66.3823 47.6413 66.4849 47.3474C66.5851 47.0569 66.7219 46.8242 66.8906 46.6571C67.0603 46.4911 67.2529 46.3748 67.4638 46.3091C67.6791 46.2422 67.9173 46.2203 68.086 46.2203C68.3287 46.2203 68.5954 46.2837 68.5954 46.2837C68.6842 46.294 68.7344 46.2387 68.7639 46.1569C68.8438 45.9426 69.0695 45.3006 69.1128 45.1728"
				fill="white"
			/>
			<path
				id="Vector_3"
				d="M57.6771 41.9315C57.5289 41.8854 57.3945 41.8542 57.2189 41.8209C57.0411 41.7887 56.8292 41.7725 56.5888 41.7725C55.75 41.7725 55.089 42.0122 54.6252 42.4846C54.1636 42.9548 53.8502 43.6705 53.6929 44.612L53.6359 44.9289H52.583C52.583 44.9289 52.4554 44.9243 52.428 45.0649L52.256 46.041C52.2434 46.1332 52.2834 46.1919 52.4064 46.1919H53.4309L52.3916 52.06C52.3106 52.5325 52.2171 52.9209 52.1134 53.2158C52.012 53.5063 51.9129 53.724 51.7898 53.8831C51.6713 54.0352 51.5596 54.1481 51.3658 54.2138C51.2063 54.268 51.0217 54.2933 50.82 54.2933C50.7083 54.2933 50.5591 54.2748 50.4485 54.2518C50.3391 54.2298 50.281 54.2057 50.1978 54.1699C50.1978 54.1699 50.0781 54.1239 50.0302 54.2449C49.9926 54.3451 49.7191 55.1045 49.6861 55.1979C49.6542 55.2912 49.6997 55.3639 49.7578 55.3857C49.8946 55.4342 49.996 55.4664 50.1817 55.5113C50.4394 55.5725 50.6569 55.5759 50.8609 55.5759C51.2871 55.5759 51.6768 55.5148 51.9994 55.3973C52.3231 55.2786 52.6056 55.0723 52.8563 54.7935C53.1265 54.4915 53.2962 54.1757 53.4581 53.7436C53.6188 53.3172 53.7568 52.7871 53.8661 52.1695L54.9111 46.1919H56.4382C56.4382 46.1919 56.5669 46.1966 56.5932 46.0548L56.7663 45.0799C56.7778 44.9866 56.739 44.929 56.6147 44.929H55.1321C55.1401 44.8956 55.2073 44.3677 55.3772 43.8711C55.4501 43.6603 55.5868 43.4885 55.702 43.3709C55.816 43.2557 55.947 43.1739 56.0907 43.1266C56.2376 43.0782 56.4053 43.0552 56.5887 43.0552C56.7277 43.0552 56.8655 43.0713 56.9693 43.0932C57.1128 43.1243 57.1687 43.1405 57.2064 43.152C57.358 43.1981 57.3784 43.1532 57.4081 43.0795L57.7625 42.0953C57.799 41.9891 57.709 41.9441 57.6771 41.9315V41.9315ZM36.962 52.0727C36.962 52.1511 36.9062 52.2145 36.8286 52.2145H35.599C35.5215 52.2145 35.4668 52.1511 35.4668 52.0727V42.0652C35.4668 41.9869 35.5215 41.9235 35.599 41.9235H36.8286C36.9062 41.9235 36.962 41.9869 36.962 42.0652V52.0727Z"
				fill="white"
			/>
		</g>
	</g>
	<defs>
		<clipPath id="clip0">
			<rect
				width="80"
				height="56.6292"
				fill="white"
				transform="translate(10 22)"
			/>
		</clipPath>
	</defs>
</svg>
