<svg viewBox="0 0 100 100" fill="none" xmlns="http://www.w3.org/2000/svg">
	<g id="App icon/logo">
		<g id="zoom" clip-path="url(#clip0)">
			<path
				id="Vector"
				fill-rule="evenodd"
				clip-rule="evenodd"
				d="M73.9721 46.9951C74.2638 47.4999 74.3592 48.0742 74.3907 48.7199L74.4321 49.5805V55.5984L74.4744 56.4599C74.559 57.8669 75.5933 58.9072 77.0065 58.9957L77.8608 59.0381V49.5805L77.9031 48.7199C77.9382 48.0815 78.0327 47.4963 78.3288 46.9879C78.6306 46.4664 79.0638 46.0338 79.585 45.7334C80.1062 45.433 80.6969 45.2754 81.298 45.2765C81.899 45.2776 82.4892 45.4373 83.0093 45.7396C83.5294 46.0419 83.961 46.4761 84.2609 46.9987C84.5525 47.5035 84.6434 48.0887 84.6785 48.7199L84.7209 49.5778V55.5984L84.7632 56.4599C84.8514 57.8741 85.8776 58.9144 87.2953 58.9957L88.1495 59.0381V48.7199C88.1495 46.8954 87.4273 45.1455 86.1415 43.8551C84.8557 42.5647 83.1118 41.8394 81.2931 41.8387C80.3196 41.8377 79.3572 42.0451 78.4701 42.447C77.5829 42.8489 76.7915 43.4362 76.1487 44.1695C75.5055 43.4365 74.7141 42.8494 73.827 42.4473C72.94 42.0453 71.9777 41.8375 71.0043 41.8378C69.5802 41.8378 68.2588 42.2713 67.1642 43.0199C66.4963 42.2722 65.0021 41.8378 64.1442 41.8378V59.0381L65.0021 58.9957C66.4369 58.9009 67.4739 57.8885 67.5297 56.4599L67.5756 55.5984V49.5805L67.6179 48.7199C67.6539 48.0706 67.7439 47.4999 68.0365 46.9915C68.3385 46.4703 68.7715 46.0378 69.2923 45.737C69.8131 45.4363 70.4034 45.2778 71.0043 45.2775C71.6056 45.2776 72.1964 45.4364 72.7173 45.7379C73.2382 46.0393 73.6709 46.4729 73.9721 46.9951V46.9951ZM15.2793 58.9966L16.1371 59.0381H28.9958L28.9535 58.1802C28.8374 56.7661 27.8391 55.733 26.425 55.6409L25.5672 55.5984H17.8528L28.138 45.2766L28.0957 44.4196C28.0291 42.991 26.9885 41.9588 25.5672 41.8803L24.7093 41.8414L11.8506 41.8378L11.8929 42.6984C12.0054 44.099 13.0181 45.1538 14.4205 45.2351L15.2793 45.2775H22.9936L12.7084 55.5993L12.7507 56.4599C12.8354 57.8777 13.8552 58.9045 15.2793 58.9957V58.9966ZM60.7785 44.3555C61.5747 45.1541 62.2063 46.1022 62.6372 47.1457C63.0681 48.1892 63.2899 49.3076 63.2899 50.4371C63.2899 51.5665 63.0681 52.685 62.6372 53.7285C62.2063 54.7719 61.5747 55.72 60.7785 56.5186C59.1699 58.1311 56.989 59.0368 54.7151 59.0368C52.4411 59.0368 50.2602 58.1311 48.6516 56.5186C45.304 53.1602 45.304 47.7139 48.6516 44.3555C49.4471 43.5572 50.3915 42.9239 51.431 42.4917C52.4704 42.0596 53.5845 41.8371 54.7097 41.8369C55.8367 41.8361 56.9528 42.0583 57.9941 42.4906C59.0355 42.9229 59.9816 43.5569 60.7785 44.3564V44.3555ZM58.3526 46.791C59.3169 47.7591 59.8585 49.0717 59.8585 50.4402C59.8585 51.8088 59.3169 53.1213 58.3526 54.0894C57.3876 55.0568 56.0793 55.6002 54.7151 55.6002C53.3509 55.6002 52.0425 55.0568 51.0776 54.0894C50.1133 53.1213 49.5716 51.8088 49.5716 50.4402C49.5716 49.0717 50.1133 47.7591 51.0776 46.791C52.0425 45.8237 53.3509 45.2803 54.7151 45.2803C56.0793 45.2803 57.3876 45.8237 58.3526 46.791ZM36.7174 41.8369C37.8426 41.8372 38.9568 42.0599 39.9962 42.4922C41.0356 42.9245 41.98 43.5579 42.7754 44.3564C46.124 47.7139 46.124 53.1611 42.7754 56.5186C41.1668 58.1311 38.9859 59.0368 36.712 59.0368C34.438 59.0368 32.2571 58.1311 30.6485 56.5186C27.3008 53.1602 27.3008 47.7139 30.6485 44.3555C31.444 43.5572 32.3884 42.9239 33.4279 42.4917C34.4673 42.0596 35.5814 41.8371 36.7066 41.8369H36.7174V41.8369ZM40.3495 46.7892C41.314 47.7573 41.8559 49.0701 41.8559 50.4389C41.8559 51.8077 41.314 53.1204 40.3495 54.0885C39.3845 55.0559 38.0762 55.5993 36.712 55.5993C35.3478 55.5993 34.0394 55.0559 33.0744 54.0885C32.1102 53.1204 31.5685 51.8079 31.5685 50.4393C31.5685 49.0708 32.1102 47.7582 33.0744 46.7901C34.0394 45.8228 35.3478 45.2794 36.712 45.2794C38.0762 45.2794 39.3845 45.8228 40.3495 46.7901V46.7892Z"
				fill="#2D8CFF"
			/>
		</g>
	</g>
	<defs>
		<clipPath id="clip0">
			<rect
				width="80"
				height="18.8764"
				fill="white"
				transform="translate(10 41)"
			/>
		</clipPath>
	</defs>
</svg>
